<svg xmlns="http://www.w3.org/2000/svg" xmlns:xlink="http://www.w3.org/1999/xlink" width="260" zoomAndPan="magnify" viewBox="0 0 194.87999 448.499987" height="598" preserveAspectRatio="xMidYMid meet" version="1.0"><defs><g/><clipPath id="bbecd8dfaf"><path d="M 69 436 L 123 436 L 123 447.894531 L 69 447.894531 Z M 69 436 " clip-rule="nonzero"/></clipPath><clipPath id="21d3b50446"><path d="M 11 430 L 46 430 L 46 447.894531 L 11 447.894531 Z M 11 430 " clip-rule="nonzero"/></clipPath><clipPath id="540022e81f"><path d="M 71.488281 120.460938 L 95.542969 120.460938 L 95.542969 215.585938 L 71.488281 215.585938 Z M 71.488281 120.460938 " clip-rule="nonzero"/></clipPath><clipPath id="b4d5aaae44"><path d="M 79.449219 120.492188 C 76.835938 121.039062 74.21875 121.574219 71.613281 122.113281 C 78.40625 147.773438 79.890625 174.25 76.101562 200.089844 C 78.945312 205.109375 81.628906 210.273438 84.0625 215.574219 C 88.027344 210.859375 91.792969 205.984375 95.402344 200.949219 C 95.566406 173.335938 90.082031 146.03125 79.449219 120.492188 Z M 79.449219 120.492188 " clip-rule="nonzero"/></clipPath><clipPath id="9c1b3654e7"><path d="M 79.449219 120.492188 C 76.835938 121.035156 74.21875 121.574219 71.613281 122.113281 C 78.40625 147.773438 79.890625 174.25 76.101562 200.085938 C 78.945312 205.109375 81.625 210.273438 84.0625 215.574219 C 88.027344 210.859375 91.792969 205.980469 95.398438 200.945312 C 95.566406 173.335938 90.082031 146.03125 79.449219 120.492188 " clip-rule="nonzero"/></clipPath><clipPath id="53e300405d"><path d="M 71.734375 217.277344 L 102.355469 215.085938 L 95.445312 118.785156 L 64.824219 120.980469 Z M 71.734375 217.277344 " clip-rule="nonzero"/></clipPath><linearGradient x1="-0.0081165" gradientTransform="matrix(-6.81211, -94.921154, 95.033875, -6.80403, 87.08798, 215.403596)" y1="0" x2="1.006396" gradientUnits="userSpaceOnUse" y2="0" id="701dedd66c"><stop stop-opacity="1" stop-color="rgb(65.098572%, 20.799255%, 20.399475%)" offset="0"/><stop stop-opacity="1" stop-color="rgb(65.098572%, 20.799255%, 20.399475%)" offset="0.5"/><stop stop-opacity="1" stop-color="rgb(65.098572%, 20.799255%, 20.399475%)" offset="0.625"/><stop stop-opacity="1" stop-color="rgb(65.098572%, 20.799255%, 20.399475%)" offset="0.65625"/><stop stop-opacity="1" stop-color="rgb(65.083313%, 20.783997%, 20.399475%)" offset="0.664063"/><stop stop-opacity="1" stop-color="rgb(64.883423%, 20.584106%, 20.399475%)" offset="0.671875"/><stop stop-opacity="1" stop-color="rgb(64.698792%, 20.399475%, 20.399475%)" offset="0.6875"/><stop stop-opacity="1" stop-color="rgb(64.593506%, 20.399475%, 20.399475%)" offset="0.695312"/><stop stop-opacity="1" stop-color="rgb(64.393616%, 20.38269%, 20.399475%)" offset="0.703125"/><stop stop-opacity="1" stop-color="rgb(64.299011%, 20.1828%, 20.387268%)" offset="0.710938"/><stop stop-opacity="1" stop-color="rgb(64.291382%, 19.999695%, 20.187378%)" offset="0.71875"/><stop stop-opacity="1" stop-color="rgb(64.089966%, 19.999695%, 19.999695%)" offset="0.726562"/><stop stop-opacity="1" stop-color="rgb(63.696289%, 19.999695%, 19.999695%)" offset="0.730469"/><stop stop-opacity="1" stop-color="rgb(63.499451%, 19.999695%, 19.999695%)" offset="0.734375"/><stop stop-opacity="1" stop-color="rgb(63.499451%, 19.999695%, 19.999695%)" offset="0.742188"/><stop stop-opacity="1" stop-color="rgb(63.299561%, 19.799805%, 19.999695%)" offset="0.746094"/><stop stop-opacity="1" stop-color="rgb(63.09967%, 19.599915%, 19.999695%)" offset="0.75"/><stop stop-opacity="1" stop-color="rgb(63.09967%, 19.599915%, 19.98291%)" offset="0.757813"/><stop stop-opacity="1" stop-color="rgb(63.095093%, 19.599915%, 19.78302%)" offset="0.765625"/><stop stop-opacity="1" stop-color="rgb(62.895203%, 19.599915%, 19.599915%)" offset="0.769531"/><stop stop-opacity="1" stop-color="rgb(62.69989%, 19.599915%, 19.599915%)" offset="0.773438"/><stop stop-opacity="1" stop-color="rgb(62.69989%, 19.580078%, 19.599915%)" offset="0.78125"/><stop stop-opacity="1" stop-color="rgb(62.689209%, 19.380188%, 19.584656%)" offset="0.789062"/><stop stop-opacity="1" stop-color="rgb(62.519836%, 19.198608%, 19.384766%)" offset="0.796875"/><stop stop-opacity="1" stop-color="rgb(62.181091%, 18.998718%, 19.198608%)" offset="0.800781"/><stop stop-opacity="1" stop-color="rgb(61.999512%, 18.798828%, 19.198608%)" offset="0.804688"/><stop stop-opacity="1" stop-color="rgb(61.999512%, 18.798828%, 19.198608%)" offset="0.8125"/><stop stop-opacity="1" stop-color="rgb(61.799622%, 18.798828%, 18.998718%)" offset="0.816406"/><stop stop-opacity="1" stop-color="rgb(61.599731%, 18.798828%, 18.798828%)" offset="0.820312"/><stop stop-opacity="1" stop-color="rgb(61.569214%, 18.768311%, 18.798828%)" offset="0.828125"/><stop stop-opacity="1" stop-color="rgb(61.358643%, 18.56842%, 18.798828%)" offset="0.835937"/><stop stop-opacity="1" stop-color="rgb(60.987854%, 18.399048%, 18.788147%)" offset="0.84375"/><stop stop-opacity="1" stop-color="rgb(60.598755%, 18.397522%, 18.588257%)" offset="0.847656"/><stop stop-opacity="1" stop-color="rgb(60.398865%, 18.397522%, 18.399048%)" offset="0.851562"/><stop stop-opacity="1" stop-color="rgb(60.398865%, 18.197632%, 18.399048%)" offset="0.855469"/><stop stop-opacity="1" stop-color="rgb(60.398865%, 17.999268%, 18.399048%)" offset="0.859375"/><stop stop-opacity="1" stop-color="rgb(60.198975%, 17.999268%, 18.199158%)" offset="0.863281"/><stop stop-opacity="1" stop-color="rgb(59.999084%, 17.999268%, 17.999268%)" offset="0.867187"/><stop stop-opacity="1" stop-color="rgb(59.986877%, 17.987061%, 17.999268%)" offset="0.875"/><stop stop-opacity="1" stop-color="rgb(59.77478%, 17.78717%, 17.985535%)" offset="0.878906"/><stop stop-opacity="1" stop-color="rgb(59.573364%, 17.599487%, 17.973328%)" offset="0.882812"/><stop stop-opacity="1" stop-color="rgb(59.385681%, 17.596436%, 17.785645%)" offset="0.890625"/><stop stop-opacity="1" stop-color="rgb(58.999634%, 17.446899%, 17.565918%)" offset="0.894531"/><stop stop-opacity="1" stop-color="rgb(58.799744%, 17.298889%, 17.533875%)" offset="0.898437"/><stop stop-opacity="1" stop-color="rgb(58.599854%, 17.298889%, 17.416382%)" offset="0.902344"/><stop stop-opacity="1" stop-color="rgb(58.399963%, 17.298889%, 17.298889%)" offset="0.90625"/><stop stop-opacity="1" stop-color="rgb(58.399963%, 17.274475%, 17.298889%)" offset="0.914062"/><stop stop-opacity="1" stop-color="rgb(58.198547%, 17.074585%, 17.29126%)" offset="0.917969"/><stop stop-opacity="1" stop-color="rgb(57.998657%, 16.899109%, 17.28363%)" offset="0.921875"/><stop stop-opacity="1" stop-color="rgb(57.992554%, 16.893005%, 17.09137%)" offset="0.929688"/><stop stop-opacity="1" stop-color="rgb(57.792664%, 16.693115%, 16.899109%)" offset="0.9375"/><stop stop-opacity="1" stop-color="rgb(57.571411%, 16.462708%, 16.862488%)" offset="0.945312"/><stop stop-opacity="1" stop-color="rgb(57.408142%, 16.262817%, 16.662598%)" offset="0.953125"/><stop stop-opacity="1" stop-color="rgb(57.067871%, 16.099548%, 16.499329%)" offset="0.957031"/><stop stop-opacity="1" stop-color="rgb(56.864929%, 16.099548%, 16.499329%)" offset="0.960938"/><stop stop-opacity="1" stop-color="rgb(56.481934%, 15.899658%, 16.494751%)" offset="0.964844"/><stop stop-opacity="1" stop-color="rgb(56.098938%, 15.699768%, 16.491699%)" offset="0.96875"/><stop stop-opacity="1" stop-color="rgb(56.098938%, 15.699768%, 16.296387%)" offset="0.976562"/><stop stop-opacity="1" stop-color="rgb(55.899048%, 15.499878%, 16.099548%)" offset="0.980469"/><stop stop-opacity="1" stop-color="rgb(55.699158%, 15.299988%, 16.099548%)" offset="0.984375"/><stop stop-opacity="1" stop-color="rgb(55.499268%, 15.299988%, 15.899658%)" offset="0.988281"/><stop stop-opacity="1" stop-color="rgb(55.299377%, 15.299988%, 15.699768%)" offset="0.992188"/><stop stop-opacity="1" stop-color="rgb(55.299377%, 15.299988%, 15.699768%)" offset="1"/></linearGradient><clipPath id="7a7f2a3593"><path d="M 73.445312 58.347656 L 84.59375 58.347656 L 84.59375 75.339844 L 73.445312 75.339844 Z M 73.445312 58.347656 " clip-rule="nonzero"/></clipPath><clipPath id="e63eceaa5a"><path d="M 82.664062 69.304688 C 82.664062 69.304688 80.152344 65.777344 79.730469 63.152344 C 79.308594 60.527344 78.292969 58.3125 77.742188 58.351562 C 77.1875 58.386719 76.480469 60.71875 76.410156 63.375 C 76.34375 66.03125 74.503906 70.867188 74.503906 70.867188 C 74.503906 70.867188 72.828125 71.632812 73.699219 73.609375 C 74.574219 75.585938 78.875 75.238281 78.875 75.238281 C 78.875 75.238281 83.796875 75.625 84.398438 73.546875 C 85 71.472656 82.664062 69.304688 82.664062 69.304688 Z M 82.664062 69.304688 " clip-rule="nonzero"/></clipPath><clipPath id="17818143aa"><path d="M 82.664062 69.304688 C 82.664062 69.304688 80.152344 65.773438 79.730469 63.152344 C 79.304688 60.527344 78.292969 58.3125 77.742188 58.347656 C 77.1875 58.386719 76.480469 60.71875 76.410156 63.375 C 76.34375 66.03125 74.503906 70.867188 74.503906 70.867188 C 74.503906 70.867188 72.828125 71.632812 73.699219 73.609375 C 74.574219 75.585938 78.875 75.238281 78.875 75.238281 C 78.875 75.238281 83.796875 75.625 84.398438 73.546875 C 85 71.472656 82.664062 69.304688 82.664062 69.304688 " clip-rule="nonzero"/></clipPath><clipPath id="8bc92e0397"><path d="M 86.613281 75.472656 L 72.933594 76.753906 L 71.214844 58.464844 L 84.894531 57.183594 Z M 86.613281 75.472656 " clip-rule="nonzero"/></clipPath><linearGradient x1="-0.0196368" gradientTransform="matrix(-2.25277, -23.959773, -23.988226, 2.250098, 79.228959, 75.368005)" y1="0" x2="0.726687" gradientUnits="userSpaceOnUse" y2="0" id="7e1309ecf5"><stop stop-opacity="1" stop-color="rgb(51.799011%, 23.899841%, 28.599548%)" offset="0"/><stop stop-opacity="1" stop-color="rgb(51.799011%, 23.957825%, 28.599548%)" offset="0.03125"/><stop stop-opacity="1" stop-color="rgb(51.847839%, 24.157715%, 28.599548%)" offset="0.0390625"/><stop stop-opacity="1" stop-color="rgb(52.047729%, 24.404907%, 28.704834%)" offset="0.046875"/><stop stop-opacity="1" stop-color="rgb(52.348328%, 24.6521%, 28.904724%)" offset="0.0625"/><stop stop-opacity="1" stop-color="rgb(52.49939%, 24.945068%, 29.03595%)" offset="0.0703125"/><stop stop-opacity="1" stop-color="rgb(52.526855%, 25.126648%, 29.23584%)" offset="0.078125"/><stop stop-opacity="1" stop-color="rgb(52.726746%, 25.326538%, 29.399109%)" offset="0.0859375"/><stop stop-opacity="1" stop-color="rgb(52.89917%, 25.532532%, 29.432678%)" offset="0.09375"/><stop stop-opacity="1" stop-color="rgb(52.914429%, 25.749207%, 29.632568%)" offset="0.109375"/><stop stop-opacity="1" stop-color="rgb(53.114319%, 26.113892%, 29.804993%)" offset="0.117188"/><stop stop-opacity="1" stop-color="rgb(53.29895%, 26.298523%, 30.003357%)" offset="0.125"/><stop stop-opacity="1" stop-color="rgb(53.312683%, 26.312256%, 30.195618%)" offset="0.132813"/><stop stop-opacity="1" stop-color="rgb(53.512573%, 26.512146%, 30.203247%)" offset="0.140625"/><stop stop-opacity="1" stop-color="rgb(53.69873%, 26.699829%, 30.39856%)" offset="0.148438"/><stop stop-opacity="1" stop-color="rgb(53.884888%, 26.699829%, 30.593872%)" offset="0.15625"/><stop stop-opacity="1" stop-color="rgb(54.084778%, 26.875305%, 30.599976%)" offset="0.164062"/><stop stop-opacity="1" stop-color="rgb(54.098511%, 27.075195%, 30.599976%)" offset="0.171875"/><stop stop-opacity="1" stop-color="rgb(54.098511%, 27.099609%, 30.780029%)" offset="0.179688"/><stop stop-opacity="1" stop-color="rgb(54.098511%, 27.27356%, 30.979919%)" offset="0.1875"/><stop stop-opacity="1" stop-color="rgb(54.25415%, 27.589417%, 31.155396%)" offset="0.203125"/><stop stop-opacity="1" stop-color="rgb(54.454041%, 27.922058%, 31.355286%)" offset="0.21875"/><stop stop-opacity="1" stop-color="rgb(54.652405%, 28.155518%, 31.399536%)" offset="0.226562"/><stop stop-opacity="1" stop-color="rgb(54.852295%, 28.343201%, 31.399536%)" offset="0.234375"/><stop stop-opacity="1" stop-color="rgb(54.899597%, 28.543091%, 31.533813%)" offset="0.242188"/><stop stop-opacity="1" stop-color="rgb(54.899597%, 28.599548%, 31.733704%)" offset="0.25"/><stop stop-opacity="1" stop-color="rgb(55.032349%, 28.7323%, 31.799316%)" offset="0.257813"/><stop stop-opacity="1" stop-color="rgb(55.232239%, 29.13208%, 31.799316%)" offset="0.261719"/><stop stop-opacity="1" stop-color="rgb(55.299377%, 29.399109%, 31.799316%)" offset="0.265625"/><stop stop-opacity="1" stop-color="rgb(55.299377%, 29.399109%, 31.954956%)" offset="0.28125"/><stop stop-opacity="1" stop-color="rgb(55.299377%, 29.502869%, 32.154846%)" offset="0.289062"/><stop stop-opacity="1" stop-color="rgb(55.393982%, 29.702759%, 32.199097%)" offset="0.296875"/><stop stop-opacity="1" stop-color="rgb(55.593872%, 29.901123%, 32.348633%)" offset="0.3125"/><stop stop-opacity="1" stop-color="rgb(55.699158%, 30.184937%, 32.499695%)" offset="0.328125"/><stop stop-opacity="1" stop-color="rgb(55.7724%, 30.557251%, 32.572937%)" offset="0.34375"/><stop stop-opacity="1" stop-color="rgb(55.97229%, 30.873108%, 32.772827%)" offset="0.359375"/><stop stop-opacity="1" stop-color="rgb(56.225586%, 30.999756%, 32.899475%)" offset="0.375"/><stop stop-opacity="1" stop-color="rgb(56.425476%, 31.124878%, 33.024597%)" offset="0.390625"/><stop stop-opacity="1" stop-color="rgb(56.539917%, 31.365967%, 33.224487%)" offset="0.40625"/><stop stop-opacity="1" stop-color="rgb(56.739807%, 31.663513%, 33.322144%)" offset="0.421875"/><stop stop-opacity="1" stop-color="rgb(56.898499%, 32.022095%, 33.522034%)" offset="0.4375"/><stop stop-opacity="1" stop-color="rgb(57.000732%, 32.275391%, 33.80127%)" offset="0.46875"/><stop stop-opacity="1" stop-color="rgb(57.202148%, 32.426453%, 34.00116%)" offset="0.484375"/><stop stop-opacity="1" stop-color="rgb(57.299805%, 32.679749%, 34.098816%)" offset="0.5"/><stop stop-opacity="1" stop-color="rgb(57.299805%, 32.879639%, 34.185791%)" offset="0.515625"/><stop stop-opacity="1" stop-color="rgb(57.362366%, 32.983398%, 34.385681%)" offset="0.53125"/><stop stop-opacity="1" stop-color="rgb(57.546997%, 33.218384%, 34.498596%)" offset="0.5625"/><stop stop-opacity="1" stop-color="rgb(57.832336%, 33.532715%, 34.562683%)" offset="0.59375"/><stop stop-opacity="1" stop-color="rgb(57.998657%, 33.761597%, 34.764099%)" offset="0.609375"/><stop stop-opacity="1" stop-color="rgb(58.026123%, 33.961487%, 34.899902%)" offset="0.625"/><stop stop-opacity="1" stop-color="rgb(58.227539%, 34.147644%, 34.947205%)" offset="0.65625"/><stop stop-opacity="1" stop-color="rgb(58.399963%, 34.347534%, 35.147095%)" offset="0.6875"/><stop stop-opacity="1" stop-color="rgb(58.399963%, 34.524536%, 35.299683%)" offset="0.71875"/><stop stop-opacity="1" stop-color="rgb(58.399963%, 34.724426%, 35.325623%)" offset="0.734375"/><stop stop-opacity="1" stop-color="rgb(58.399963%, 34.899902%, 35.525513%)" offset="0.75"/><stop stop-opacity="1" stop-color="rgb(58.59375%, 35.093689%, 35.699463%)" offset="0.8125"/><stop stop-opacity="1" stop-color="rgb(58.79364%, 35.293579%, 35.699463%)" offset="0.875"/><stop stop-opacity="1" stop-color="rgb(58.799744%, 35.299683%, 35.699463%)" offset="1"/></linearGradient><clipPath id="ea8d969d81"><path d="M 0.0625 117 L 48 117 L 48 205 L 0.0625 205 Z M 0.0625 117 " clip-rule="nonzero"/></clipPath><clipPath id="fac21df791"><path d="M 142 188 L 194.519531 188 L 194.519531 227 L 142 227 Z M 142 188 " clip-rule="nonzero"/></clipPath></defs><path fill="#d3d6e7" d="M 146.457031 181.945312 C 143.027344 162.777344 131.671875 131.769531 126.71875 122.675781 C 123.613281 116.964844 109.535156 111.921875 106.550781 113.296875 C 98.335938 120.4375 118.082031 177.6875 124.230469 188.261719 C 131.117188 200.09375 147.730469 189.046875 146.457031 181.945312 " fill-opacity="1" fill-rule="evenodd"/><path fill="#d3d7da" d="M 85.261719 421.097656 L 85.261719 406.996094 L 70.136719 406.996094 L 70.136719 422.804688 C 70.136719 422.804688 83.015625 424.679688 85.261719 421.097656 " fill-opacity="1" fill-rule="nonzero"/><g clip-path="url(#bbecd8dfaf)"><path fill="#302421" d="M 69.054688 436.878906 C 69.054688 436.878906 69.039062 439.039062 70.359375 439.535156 C 71.683594 440.035156 77.777344 440.160156 82.066406 440.554688 C 86.355469 440.953125 90.539062 442.925781 94.152344 444.738281 C 97.765625 446.554688 105.464844 447.65625 110.316406 447.367188 C 115.742188 447.046875 121.046875 444.8125 121.972656 443.398438 C 122.902344 441.984375 121.867188 440.074219 121.867188 440.074219 L 69.054688 436.878906 " fill-opacity="1" fill-rule="nonzero"/></g><path fill="#564540" d="M 80.207031 416.757812 C 80.207031 416.757812 80.753906 418.746094 80.136719 419.5625 C 79.519531 420.382812 77.929688 422.335938 74.515625 420.875 C 71.097656 419.417969 71.367188 416.835938 70.824219 416.300781 C 70.28125 415.765625 69.058594 416.890625 69.027344 418.046875 C 68.992188 419.207031 67.53125 423.554688 67.234375 426.703125 C 66.71875 432.25 68.660156 436.296875 69.054688 436.878906 C 69.445312 437.464844 73.808594 438.6875 78.296875 438.460938 C 82.503906 438.246094 87.09375 439.371094 89.285156 440.636719 C 91.472656 441.898438 101.015625 445.214844 106.808594 445.511719 C 112.609375 445.808594 120.988281 443.210938 121.914062 441.921875 C 122.839844 440.632812 122.453125 438.09375 120.023438 436.925781 C 117.59375 435.753906 110.707031 431.289062 107.761719 429.472656 C 104.816406 427.65625 90.253906 420.320312 88.613281 417.09375 C 86.96875 413.871094 87.25 414.207031 86.359375 413.554688 C 85.464844 412.898438 80.023438 414.621094 80.207031 416.757812 " fill-opacity="1" fill-rule="nonzero"/><path fill="#6a534a" d="M 117.242188 436.5 C 117.242188 436.5 113.230469 437.648438 109.542969 437.742188 C 105.855469 437.832031 101.199219 436.867188 100.878906 435.808594 C 100.554688 434.746094 104.933594 434.566406 107.929688 434.011719 C 110.925781 433.460938 112.722656 432.859375 112.722656 432.859375 L 117.980469 436.175781 L 117.242188 436.5 " fill-opacity="1" fill-rule="nonzero"/><path fill="#d3d7da" d="M 43.570312 417.082031 L 43.570312 410.078125 L 28.039062 410.078125 L 28.039062 417.933594 C 28.039062 417.933594 41.265625 418.863281 43.570312 417.082031 " fill-opacity="1" fill-rule="nonzero"/><g clip-path="url(#21d3b50446)"><path fill="#302421" d="M 45.597656 430.339844 C 45.597656 430.339844 45.859375 431.289062 45.597656 431.484375 C 45.335938 431.679688 42.417969 433.328125 41.914062 435.035156 C 41.410156 436.742188 40.933594 439.316406 39.539062 442.085938 C 38.140625 444.859375 34.402344 447.882812 25.707031 447.851562 C 14.867188 447.816406 12.34375 446.800781 11.542969 442.765625 C 10.746094 438.730469 45.597656 430.339844 45.597656 430.339844 " fill-opacity="1" fill-rule="nonzero"/></g><path fill="#564540" d="M 44.464844 417.5 C 44.464844 417.5 46.035156 420.347656 46.246094 423.265625 C 46.453125 426.183594 46.140625 430.121094 45.355469 430.632812 C 44.566406 431.144531 41.84375 432.386719 41.421875 434.71875 C 41.003906 437.054688 39.539062 441.796875 34.714844 444.640625 C 29.894531 447.484375 17.945312 447.339844 13.644531 445.078125 C 9.347656 442.816406 11.234375 436.617188 15.636719 431.214844 C 20.039062 425.816406 26.382812 420.492188 26.171875 418.523438 C 25.964844 416.554688 25.910156 415.019531 26.957031 414.4375 C 28.003906 413.851562 33.492188 414.035156 37.371094 413.78125 C 39.289062 413.65625 38.882812 416.140625 39.300781 416.867188 C 39.71875 417.597656 43.878906 416.269531 44.464844 417.5 " fill-opacity="1" fill-rule="nonzero"/><path fill="#6a534a" d="M 33.632812 437.125 C 33.632812 437.125 30.417969 439.753906 22.453125 439.605469 C 14.484375 439.460938 12.804688 436.933594 13.996094 435.328125 C 15.183594 433.722656 36.359375 433.332031 33.632812 437.125 " fill-opacity="1" fill-rule="nonzero"/><path fill="#2f3f52" d="M 91.929688 338.0625 C 93.976562 321.605469 101.210938 291.160156 103.808594 269.289062 C 104.238281 265.644531 106.980469 235.007812 106.648438 233.375 C 105.152344 225.980469 66.339844 232.011719 60.800781 230.921875 C 55.976562 229.96875 58.441406 265.652344 58.839844 271.859375 C 60.203125 293.023438 65.160156 320.679688 66.726562 337.238281 C 67.914062 349.753906 89.808594 355.15625 91.929688 338.0625 " fill-opacity="1" fill-rule="evenodd"/><path fill="#33465b" d="M 23.757812 414.1875 C 26.757812 417.523438 43.671875 416.910156 47.195312 415.433594 C 47.605469 403.398438 52.683594 372.097656 55.207031 356.742188 C 62.976562 309.519531 29.507812 314.128906 27.683594 345.953125 C 26.4375 367.738281 25.164062 402.71875 23.757812 414.1875 " fill-opacity="1" fill-rule="evenodd"/><path fill="#33465b" d="M 55.246094 338.0625 C 57.960938 327.988281 63.375 312.675781 68.488281 297.289062 C 75.625 275.824219 82.375 251.332031 84.363281 229.824219 C 84.542969 227.828125 32.542969 225.628906 31.523438 230.175781 C 29.90625 237.429688 31.519531 272.585938 31.089844 282.941406 C 30.3125 301.964844 30.851562 323.445312 30.160156 337.238281 C 29.535156 349.753906 50.644531 355.15625 55.246094 338.0625 " fill-opacity="1" fill-rule="evenodd"/><path fill="#2f3f52" d="M 89.238281 414.1875 C 85.855469 417.523438 69.003906 416.910156 65.652344 415.433594 C 66.625 403.398438 65.132812 372.097656 64.363281 356.742188 C 62.007812 309.519531 94.945312 314.128906 93.128906 345.953125 C 91.878906 367.738281 89.140625 402.71875 89.238281 414.1875 " fill-opacity="1" fill-rule="evenodd"/><path fill="#3d5166" d="M 90.433594 337.636719 C 90.050781 340.6875 88.777344 343.90625 85.355469 344.871094 C 80.058594 346.367188 73.59375 342.109375 73.105469 336.910156 C 72.253906 327.917969 70.953125 318.886719 69.667969 309.878906 C 68.621094 302.527344 71.882812 296.828125 74.203125 289.644531 C 75.035156 287.074219 75.847656 284.527344 76.613281 282.027344 C 82.96875 261.425781 104.820312 256.367188 99.878906 285.144531 C 99.230469 288.9375 98.53125 292.730469 97.824219 296.507812 C 96.417969 303.996094 94.9375 311.472656 93.53125 318.960938 C 92.367188 325.140625 91.207031 331.394531 90.433594 337.636719 " fill-opacity="1" fill-rule="evenodd"/><path fill="#3d5166" d="M 87.707031 412.0625 C 84.410156 413.023438 76.550781 413.074219 72.230469 412.558594 C 72.390625 409.015625 72.378906 405.417969 72.351562 401.90625 C 72.3125 395.933594 72.148438 389.957031 71.945312 383.980469 C 71.632812 374.84375 71.210938 365.707031 70.753906 356.574219 C 70.363281 348.777344 70.792969 338.558594 74.554688 331.410156 C 75.914062 328.832031 78.5625 325.253906 82.066406 325.382812 C 84.914062 325.488281 87.199219 327.96875 88.503906 330.109375 C 91.269531 334.648438 91.898438 340.632812 91.605469 345.753906 C 91.089844 354.710938 90.480469 363.664062 89.882812 372.621094 C 89.347656 380.71875 88.804688 388.832031 88.351562 396.9375 C 88.070312 401.925781 87.75 407.039062 87.707031 412.0625 " fill-opacity="1" fill-rule="evenodd"/><path fill="#3d5166" d="M 29.957031 412.175781 C 30.460938 407.261719 30.726562 402.242188 31.019531 397.34375 C 31.492188 389.242188 31.875 381.136719 32.265625 373.027344 C 32.699219 364.070312 33.113281 355.109375 33.625 346.152344 C 33.945312 340.589844 35.457031 334.304688 39.050781 329.75 C 40.699219 327.65625 43.613281 325.074219 46.644531 325.40625 C 49.863281 325.757812 51.789062 329.382812 52.699219 331.902344 C 55.28125 339.070312 54.488281 348.847656 53.285156 356.179688 C 51.789062 365.261719 50.324219 374.351562 48.96875 383.453125 C 48.082031 389.4375 47.226562 395.445312 46.5 401.449219 C 46.054688 405.085938 45.609375 408.816406 45.371094 412.507812 C 41.226562 413.058594 33.398438 413.0625 29.957031 412.175781 " fill-opacity="1" fill-rule="evenodd"/><path fill="#3d5166" d="M 53.398438 337.152344 C 52.492188 340.523438 50.496094 343.878906 46.703125 344.878906 C 43.953125 345.601562 40.855469 344.871094 38.710938 343.113281 C 36.925781 341.652344 35.996094 339.636719 36.109375 337.414062 C 36.777344 324.042969 36.472656 310.464844 36.671875 297.066406 C 36.78125 289.625 36.980469 282.171875 37.492188 274.746094 C 38.601562 258.539062 77.441406 261.316406 72.929688 276.59375 C 70.972656 283.210938 68.824219 289.789062 66.644531 296.335938 C 64.171875 303.773438 61.628906 311.191406 59.152344 318.628906 C 57.121094 324.75 55.066406 330.9375 53.398438 337.152344 " fill-opacity="1" fill-rule="evenodd"/><path fill="#3d5166" d="M 37.375 256.78125 C 35.6875 269.9375 34.359375 283 33.53125 295.933594 C 32.699219 308.859375 32.359375 321.671875 32.640625 334.328125 C 31.125 347.628906 29.941406 360.882812 29.101562 374.074219 C 28.265625 387.277344 27.769531 400.433594 27.628906 413.546875 L 28.136719 413.550781 C 28.277344 400.460938 28.773438 387.308594 29.609375 374.105469 C 30.449219 360.90625 31.632812 347.660156 33.148438 334.375 L 33.148438 334.339844 C 32.871094 321.695312 33.210938 308.890625 34.042969 295.964844 C 34.867188 283.035156 36.191406 269.984375 37.878906 256.847656 L 37.375 256.78125 " fill-opacity="1" fill-rule="evenodd"/><path fill="#3d5166" d="M 41.257812 242.769531 C 40.679688 247.382812 39.566406 250.851562 37.886719 253.054688 C 36.226562 255.226562 33.992188 256.175781 31.140625 255.792969 L 31.082031 256.253906 C 34.113281 256.660156 36.488281 255.652344 38.257812 253.34375 C 39.992188 251.0625 41.132812 247.523438 41.722656 242.824219 L 41.257812 242.769531 " fill-opacity="1" fill-rule="evenodd"/><path fill="#242e48" d="M 92.777344 242.824219 C 93.367188 247.523438 94.507812 251.0625 96.242188 253.34375 C 98.007812 255.652344 100.386719 256.660156 103.417969 256.253906 L 103.355469 255.792969 C 100.503906 256.175781 98.273438 255.226562 96.617188 253.054688 C 94.929688 250.851562 93.820312 247.382812 93.246094 242.769531 L 92.777344 242.824219 " fill-opacity="1" fill-rule="evenodd"/><path fill="#965a5b" d="M 83.675781 105.550781 C 83.675781 105.550781 74.65625 116 71.054688 121.386719 C 66.46875 113.4375 56.84375 104.914062 56.84375 104.914062 L 83.675781 105.550781 " fill-opacity="1" fill-rule="nonzero"/><path fill="#843d49" d="M 52.066406 85.941406 L 70.988281 95.59375 L 89.910156 85.941406 C 89.910156 85.941406 90.117188 92.480469 91.8125 102.785156 C 88.703125 109.027344 70.988281 111.308594 70.988281 111.308594 C 70.988281 111.308594 53.273438 109.027344 50.164062 102.785156 C 51.855469 92.480469 52.066406 85.941406 52.066406 85.941406 " fill-opacity="1" fill-rule="nonzero"/><path fill="#843d49" d="M 51.34375 94.410156 C 51.34375 94.410156 54.996094 102.492188 60.574219 106.046875 C 66.148438 109.601562 70.988281 110.015625 70.988281 110.015625 C 70.988281 110.015625 75.824219 109.601562 81.398438 106.046875 C 86.976562 102.492188 90.632812 94.410156 90.632812 94.410156 C 90.632812 94.410156 91.679688 102.722656 94.054688 103.484375 C 94.054688 103.484375 92.890625 122.386719 70.988281 122.386719 C 49.082031 122.386719 47.917969 103.484375 47.917969 103.484375 C 50.292969 102.722656 51.34375 94.410156 51.34375 94.410156 " fill-opacity="1" fill-rule="nonzero"/><path fill="#843d49" d="M 47.320312 67.710938 C 47.378906 67.453125 46.429688 62.363281 42.519531 62.292969 C 38.609375 62.21875 37.785156 66.769531 39.019531 71.710938 C 40.257812 76.652344 43.175781 79.046875 45.757812 78.578125 C 48.339844 78.113281 48.871094 76.660156 48.871094 76.660156 L 47.320312 67.710938 " fill-opacity="1" fill-rule="nonzero"/><path fill="#843d49" d="M 39.765625 68.242188 C 39.765625 68.242188 40.007812 63.214844 42.679688 64.773438 C 45.351562 66.332031 46.03125 74.894531 44.085938 75.480469 C 42.140625 76.066406 40.925781 73.375 41.777344 71.179688 C 42.628906 68.984375 43.515625 69.058594 43.515625 69.058594 C 43.515625 69.058594 43.210938 66.003906 41.886719 65.613281 C 40.558594 65.222656 40.070312 67.261719 39.765625 68.242188 " fill-opacity="1" fill-rule="nonzero"/><path fill="#965a5b" d="M 45.707031 46.457031 C 45.769531 34.046875 54.84375 25.738281 70.988281 25.738281 C 87.128906 25.738281 96.207031 34.046875 96.265625 46.457031 C 96.316406 57.070312 98.195312 81.960938 96.890625 84.605469 C 95.078125 88.269531 87.808594 97.355469 82.03125 100.976562 C 78.1875 103.386719 73.304688 103.386719 69.460938 100.976562 C 63.679688 97.355469 50.988281 90.683594 49.175781 87.019531 C 47.871094 84.375 45.65625 57.070312 45.707031 46.457031 " fill-opacity="1" fill-rule="nonzero"/><path fill="#ffffff" d="M 86.71875 61.152344 C 86.71875 63.316406 88.183594 65.074219 89.992188 65.074219 C 91.800781 65.074219 93.265625 63.316406 93.265625 61.152344 C 93.265625 58.984375 91.800781 57.226562 89.992188 57.226562 C 88.183594 57.226562 86.71875 58.984375 86.71875 61.152344 " fill-opacity="1" fill-rule="nonzero"/><path fill="#ffffff" d="M 66.652344 61.152344 C 66.652344 63.316406 65.1875 65.074219 63.382812 65.074219 C 61.574219 65.074219 60.105469 63.316406 60.105469 61.152344 C 60.105469 58.984375 61.574219 57.226562 63.382812 57.226562 C 65.1875 57.226562 66.652344 58.984375 66.652344 61.152344 " fill-opacity="1" fill-rule="nonzero"/><path fill="#1e1d1d" d="M 86.957031 61.152344 C 86.957031 63.316406 88.046875 65.074219 89.386719 65.074219 C 90.726562 65.074219 91.8125 63.316406 91.8125 61.152344 C 91.8125 58.984375 90.726562 57.226562 89.386719 57.226562 C 88.046875 57.226562 86.957031 58.984375 86.957031 61.152344 " fill-opacity="1" fill-rule="nonzero"/><path fill="#1e1d1d" d="M 93.148438 60.449219 C 93.070312 60.34375 92.34375 57.726562 90.050781 57.785156 C 87.761719 57.847656 86.71875 60.316406 86.71875 60.316406 C 86.71875 60.316406 87.039062 57.105469 90.179688 56.699219 C 93.316406 56.289062 94.089844 60 93.941406 60.257812 C 93.789062 60.515625 93.148438 60.449219 93.148438 60.449219 " fill-opacity="1" fill-rule="nonzero"/><path fill="#ffffff" d="M 87.5625 59.589844 C 87.5625 59.261719 87.828125 59 88.15625 59 C 88.480469 59 88.746094 59.261719 88.746094 59.589844 C 88.746094 59.914062 88.480469 60.179688 88.15625 60.179688 C 87.828125 60.179688 87.5625 59.914062 87.5625 59.589844 " fill-opacity="1" fill-rule="nonzero"/><path fill="#1e1d1d" d="M 95.054688 54.996094 C 95.054688 54.996094 91.179688 53.519531 89.394531 53.703125 C 87.605469 53.890625 85.621094 54.121094 85.234375 53.265625 C 84.847656 52.414062 84.894531 48.964844 86.492188 48.597656 C 88.085938 48.226562 91.472656 48.472656 93.796875 50.566406 C 96.117188 52.660156 96.164062 55.058594 95.054688 54.996094 " fill-opacity="1" fill-rule="nonzero"/><path fill="#1e1d1d" d="M 64.960938 61.152344 C 64.960938 63.316406 63.875 65.074219 62.535156 65.074219 C 61.195312 65.074219 60.105469 63.316406 60.105469 61.152344 C 60.105469 58.984375 61.195312 57.226562 62.535156 57.226562 C 63.875 57.226562 64.960938 58.984375 64.960938 61.152344 " fill-opacity="1" fill-rule="nonzero"/><path fill="#1e1d1d" d="M 60.226562 60.449219 C 60.300781 60.34375 61.03125 57.726562 63.320312 57.785156 C 65.609375 57.847656 66.652344 60.316406 66.652344 60.316406 C 66.652344 60.316406 66.332031 57.105469 63.195312 56.699219 C 60.054688 56.289062 59.28125 60 59.433594 60.257812 C 59.585938 60.515625 60.226562 60.449219 60.226562 60.449219 " fill-opacity="1" fill-rule="nonzero"/><path fill="#ffffff" d="M 61.816406 59.589844 C 61.816406 59.261719 61.550781 59 61.222656 59 C 60.898438 59 60.632812 59.261719 60.632812 59.589844 C 60.632812 59.914062 60.898438 60.179688 61.222656 60.179688 C 61.550781 60.179688 61.816406 59.914062 61.816406 59.589844 " fill-opacity="1" fill-rule="nonzero"/><path fill="#1e1d1d" d="M 57.0625 54.996094 C 57.0625 54.996094 62.160156 53.519531 64.515625 53.703125 C 66.871094 53.890625 69.480469 54.121094 69.988281 53.265625 C 70.5 52.414062 70.433594 48.964844 68.335938 48.597656 C 66.234375 48.226562 61.777344 48.472656 58.71875 50.566406 C 55.664062 52.660156 55.601562 55.058594 57.0625 54.996094 " fill-opacity="1" fill-rule="nonzero"/><path fill="#eaeaf3" d="M 119.996094 116.070312 C 111.042969 110.160156 93.609375 102.9375 93.609375 102.9375 L 81.957031 110.140625 L 75.574219 121.8125 L 67.816406 112.875 L 47.46875 102.9375 C 47.46875 102.9375 11.117188 116.09375 8.53125 121.839844 C 7.699219 160.214844 32.207031 228.796875 32.207031 228.796875 C 32.207031 228.796875 51.539062 234.957031 73.996094 234.957031 C 96.457031 234.957031 106.492188 229.664062 106.492188 229.664062 C 106.492188 229.664062 126.847656 185.148438 124.988281 125.550781 C 124.867188 121.742188 123.175781 118.171875 119.996094 116.070312 " fill-opacity="1" fill-rule="nonzero"/><path fill="#532b30" d="M 69.070312 238.25 C 88.703125 238.257812 106.988281 236.707031 108.246094 232.09375 C 108.484375 230.425781 108.902344 227.675781 109.4375 224.140625 C 104.335938 227.796875 87.257812 229.085938 69.089844 229.078125 C 51.132812 229.074219 34.570312 226.457031 28.945312 222.523438 C 29.308594 226.386719 29.578125 229.171875 29.710938 230.4375 C 31.566406 235.015625 49.429688 238.242188 69.070312 238.25 " fill-opacity="1" fill-rule="evenodd"/><path fill="#7e564c" d="M 87.308594 227.667969 L 74.007812 227.816406 C 72.652344 227.832031 71.542969 228.789062 71.542969 229.945312 L 71.542969 236.835938 C 71.542969 237.992188 72.652344 238.921875 74.007812 238.902344 L 87.308594 238.757812 C 88.664062 238.746094 89.773438 237.785156 89.773438 236.632812 L 89.773438 229.742188 C 89.773438 228.585938 88.664062 227.652344 87.308594 227.667969 " fill-opacity="1" fill-rule="evenodd"/><path fill="#532b30" d="M 84.726562 229.851562 L 76.589844 229.941406 C 75.757812 229.949219 75.082031 230.535156 75.082031 231.242188 L 75.082031 235.457031 C 75.082031 236.164062 75.757812 236.734375 76.589844 236.726562 L 84.726562 236.636719 C 85.558594 236.625 86.234375 236.042969 86.234375 235.332031 L 86.234375 231.117188 C 86.234375 230.410156 85.558594 229.839844 84.726562 229.851562 " fill-opacity="1" fill-rule="evenodd"/><path fill="#d0d4e3" d="M 61.59375 109.832031 C 53.605469 109.832031 53.425781 103.523438 47.84375 102.9375 C 47.84375 102.9375 46.023438 103.4375 44.304688 104.070312 C 48.363281 116.753906 55.234375 122.574219 64.203125 126.21875 C 68.875 116.871094 67.3125 123.984375 68.75 113.636719 C 67.792969 112.59375 61.59375 109.832031 61.59375 109.832031 " fill-opacity="1" fill-rule="nonzero"/><path fill="#d0d4e3" d="M 80.660156 111.3125 C 87.773438 108.832031 90.398438 104.785156 95.175781 102.496094 C 95.175781 102.496094 95.207031 105.441406 96.945312 105.503906 C 99.402344 114.566406 95.714844 117.734375 88.859375 124.417969 C 81.617188 117.042969 86.703125 111.3125 79.875 119.6875 C 79.941406 119.664062 80.660156 111.3125 80.660156 111.3125 " fill-opacity="1" fill-rule="nonzero"/><path fill="#902928" d="M 54.886719 106.832031 C 54.886719 106.832031 64.238281 115.835938 69.757812 116.746094 L 71.460938 124.046875 C 71.460938 124.046875 57.171875 119.179688 54.886719 106.832031 " fill-opacity="1" fill-rule="nonzero"/><path fill="#902928" d="M 91.148438 101.820312 C 91.148438 101.820312 84.945312 113.210938 79.953125 115.738281 L 80.535156 123.210938 C 80.535156 123.210938 92.6875 114.28125 91.148438 101.820312 " fill-opacity="1" fill-rule="nonzero"/><path fill="#f2f1f1" d="M 47.160156 104.023438 L 50.597656 97.0625 C 50.597656 97.0625 56.8125 107.839844 68.886719 112.441406 C 62.992188 114.265625 62.34375 123.214844 62.34375 123.214844 C 62.34375 123.214844 49.40625 120.054688 47.160156 104.023438 " fill-opacity="1" fill-rule="nonzero"/><path fill="#f2f1f1" d="M 96.738281 104.761719 L 91.375 97.0625 C 91.375 97.0625 88.519531 106.511719 80.65625 110.464844 C 88.363281 110.464844 89.542969 119.921875 89.542969 119.921875 C 89.542969 119.921875 96.917969 113.640625 96.738281 104.761719 " fill-opacity="1" fill-rule="nonzero"/><path fill="#f2f1f1" d="M 68.890625 112.441406 L 76.464844 123.21875 L 66.570312 113.382812 L 68.890625 112.441406 " fill-opacity="1" fill-rule="nonzero"/><path fill="#f2f1f1" d="M 80.65625 110.464844 L 83.121094 110.78125 L 76.460938 123.214844 L 80.65625 110.464844 " fill-opacity="1" fill-rule="nonzero"/><g clip-path="url(#540022e81f)"><g clip-path="url(#b4d5aaae44)"><g clip-path="url(#9c1b3654e7)"><g clip-path="url(#53e300405d)"><path fill="url(#701dedd66c)" d="M 71.734375 217.277344 L 102.332031 215.085938 L 95.421875 118.789062 L 64.824219 120.980469 Z M 71.734375 217.277344 " fill-rule="nonzero"/></g></g></g></g><path fill="#a53434" d="M 81.429688 126.605469 C 79.808594 127.28125 74.753906 127.863281 71.289062 127.832031 C 71.023438 126.113281 66.980469 113.898438 70.082031 114.46875 C 72.363281 114.738281 74.941406 115.820312 78.40625 113.367188 C 81.960938 111.226562 82.1875 125.261719 81.429688 126.605469 " fill-opacity="1" fill-rule="nonzero"/><path fill="#76ad39" d="M 8.0625 119.867188 C 9.707031 114.574219 42.1875 104.914062 43.683594 104.347656 C 48.765625 113.886719 54.804688 149.546875 92.761719 161.089844 C 92.796875 161.101562 92.734375 161.070312 92.761719 161.089844 C 93.328125 161.492188 90.070312 202.992188 87.960938 225.910156 C 87.324219 232.828125 80.847656 241.699219 77.925781 242.257812 C 64.777344 244.78125 20.316406 242.582031 21.039062 232.769531 C 21.816406 231.460938 20.296875 204.75 20.242188 204.539062 C 20.121094 203 13.449219 156.039062 11.027344 147.113281 C 10.574219 145.203125 10.082031 143.277344 9.59375 141.351562 C 7.152344 131.734375 3.746094 127.601562 8.0625 119.867188 " fill-opacity="1" fill-rule="nonzero"/><path fill="#cacdcd" d="M 90.640625 207.007812 L 90.097656 222.289062 L 21.046875 220.027344 L 20.296875 204.738281 Z M 91.824219 173.609375 L 91.285156 188.890625 L 17.785156 186.597656 L 15.269531 171.109375 L 91.824219 173.609375 " fill-opacity="1" fill-rule="evenodd"/><path fill="#e2e0de" d="M 48.753906 205.527344 L 38.710938 205.171875 L 38.171875 220.449219 L 48.210938 220.804688 Z M 49.941406 172.125 L 39.898438 171.769531 L 39.355469 187.050781 L 49.398438 187.40625 L 49.941406 172.125 " fill-opacity="1" fill-rule="evenodd"/><path fill="#e2e0de" d="M 74.652344 206.441406 L 68.101562 206.210938 L 67.5625 221.492188 L 74.109375 221.722656 Z M 75.839844 173.042969 L 69.289062 172.8125 L 68.746094 188.089844 L 75.296875 188.324219 L 75.839844 173.042969 " fill-opacity="1" fill-rule="evenodd"/><path fill="#70a339" d="M 87.226562 161.535156 C 102.492188 147.390625 111.675781 108.5625 119.128906 114.5625 C 121.210938 116.238281 121.515625 119.664062 121.753906 122.839844 C 122.15625 133.78125 121.570312 144.769531 120.171875 155.75 C 119.941406 157.578125 119.683594 159.40625 119.382812 161.234375 C 117.59375 166.832031 121.207031 227.863281 121.152344 230.96875 C 121.171875 232.117188 120.972656 233.179688 120.492188 234.199219 C 120.457031 234.269531 120.421875 234.308594 120.386719 234.378906 C 118.664062 237.867188 109.785156 241.898438 102.609375 240.519531 C 98.9375 241.511719 92.050781 241.9375 91.574219 241.980469 C 90.691406 242.058594 84.160156 239.679688 83.925781 236.035156 C 82.722656 217.484375 87.226562 161.535156 87.226562 161.535156 " fill-opacity="1" fill-rule="nonzero"/><path fill="#7bb03d" d="M 89.230469 161.613281 C 100.585938 144.644531 97.972656 103.683594 98.101562 103.742188 C 101.484375 105.25 116.28125 110.066406 123.734375 116.066406 C 125.816406 117.742188 126.121094 121.171875 126.355469 124.34375 C 126.761719 135.285156 126.175781 146.273438 124.777344 157.253906 C 124.546875 159.082031 124.289062 160.914062 123.988281 162.738281 C 122.199219 168.335938 123.210938 227.9375 123.160156 231.042969 C 123.179688 232.191406 122.980469 233.253906 122.496094 234.273438 C 122.460938 234.347656 122.429688 234.382812 122.394531 234.453125 C 120.671875 237.941406 111.890625 240.992188 104.589844 241.265625 C 100.789062 241.40625 92.71875 241.964844 92.246094 242.003906 C 91.359375 242.082031 86.167969 239.757812 85.933594 236.105469 C 84.730469 217.5625 89.230469 161.613281 89.230469 161.613281 " fill-opacity="1" fill-rule="nonzero"/><path fill="#cacdcd" d="M 122.964844 208.34375 L 123.074219 223.65625 L 85.621094 222.121094 L 86.195312 206.84375 Z M 123.074219 174.839844 L 122.929688 190.3125 L 87.542969 188.75 L 88.117188 173.46875 L 123.074219 174.839844 " fill-opacity="1" fill-rule="evenodd"/><path fill="#e2e0de" d="M 109.34375 223.09375 L 115.992188 223.363281 L 116.585938 208.085938 L 109.9375 207.816406 Z M 110.640625 189.699219 L 117.292969 189.964844 L 117.882812 174.691406 L 111.234375 174.417969 L 110.640625 189.699219 " fill-opacity="1" fill-rule="evenodd"/><path fill="#e2e0de" d="M 92.195312 222.398438 L 96.53125 222.574219 L 97.125 207.296875 L 92.789062 207.121094 Z M 93.492188 189.003906 L 97.832031 189.179688 L 98.421875 173.902344 L 94.085938 173.726562 L 93.492188 189.003906 " fill-opacity="1" fill-rule="evenodd"/><g clip-path="url(#7a7f2a3593)"><g clip-path="url(#e63eceaa5a)"><g clip-path="url(#17818143aa)"><g clip-path="url(#8bc92e0397)"><path fill="url(#7e1309ecf5)" d="M 86.175781 75.191406 L 73.542969 76.375 L 71.859375 58.496094 L 84.496094 57.308594 Z M 86.175781 75.191406 " fill-rule="nonzero"/></g></g></g></g><path fill="#761f34" d="M 78.472656 80.046875 C 74.078125 80.046875 69.902344 78.835938 68.792969 81.171875 C 68.007812 82.824219 70.066406 89.363281 77.941406 89.195312 C 83.4375 89.078125 87.160156 84.335938 86.644531 81.238281 C 86.238281 78.894531 82.859375 80.039062 78.472656 80.046875 " fill-opacity="1" fill-rule="nonzero"/><path fill="#a93239" d="M 68.773438 83.109375 C 69.378906 85.640625 72.007812 89.328125 77.941406 89.195312 C 80.640625 89.144531 82.914062 87.953125 84.476562 86.414062 C 80.828125 81.957031 74.199219 80.429688 68.773438 83.109375 " fill-opacity="1" fill-rule="nonzero"/><path fill="#9c2a31" d="M 68.773438 83.109375 C 68.800781 83.222656 68.839844 83.351562 68.886719 83.476562 C 72.90625 85.589844 77.433594 86.222656 82.394531 84.429688 C 78.628906 81.570312 73.285156 80.878906 68.773438 83.109375 " fill-opacity="1" fill-rule="nonzero"/><path fill="#ffffff" d="M 68.792969 81.171875 C 68.71875 81.332031 68.683594 81.554688 68.667969 81.789062 C 74.902344 85.640625 83.300781 84.90625 85.03125 79.835938 C 83.5625 79.597656 81.207031 80.046875 78.472656 80.046875 C 74.078125 80.046875 69.902344 78.835938 68.792969 81.171875 " fill-opacity="1" fill-rule="nonzero"/><path fill="#cae3d8" d="M 68.792969 81.171875 C 68.71875 81.332031 68.683594 81.554688 68.667969 81.789062 C 69.203125 82.128906 69.753906 82.410156 70.328125 82.671875 C 74.402344 79.945312 82.96875 80.558594 83.285156 82.3125 C 84.078125 81.660156 84.691406 80.832031 85.03125 79.835938 C 83.5625 79.597656 81.207031 80.046875 78.472656 80.046875 C 74.078125 80.046875 69.902344 78.835938 68.792969 81.171875 " fill-opacity="1" fill-rule="nonzero"/><g clip-path="url(#ea8d969d81)"><path fill="#d3d6e7" d="M 20.457031 199.980469 C 11.039062 181.304688 1.65625 147.722656 0.539062 136.933594 C -0.167969 130.160156 10.648438 117.59375 14.582031 117.058594 C 27.671875 118.503906 46.230469 179.792969 47.128906 192.570312 C 48.136719 206.867188 23.945312 206.898438 20.457031 199.980469 " fill-opacity="1" fill-rule="evenodd"/></g><path fill="#965a5b" d="M 101.4375 208.863281 C 98.78125 203 61.269531 191.445312 55.355469 187.441406 C 49.339844 183.363281 43.226562 184.074219 40.53125 185.613281 C 38.734375 186.644531 37.9375 186.597656 36.648438 188.597656 C 34.289062 192.273438 34.34375 192.066406 34.441406 196.433594 C 34.496094 198.8125 34.777344 200.84375 35.773438 202.65625 C 37.273438 205.375 42.007812 207.101562 48.523438 209.65625 C 55.035156 212.210938 95.355469 218.625 100.304688 212.878906 C 101.5625 211.421875 102.230469 210.617188 101.4375 208.863281 " fill-opacity="1" fill-rule="evenodd"/><path fill="#b9becc" d="M 49.4375 209.988281 C 51.269531 205.671875 49.835938 198.816406 50.941406 195.84375 C 52.058594 192.832031 52.558594 188.980469 53.964844 186.898438 C 52.636719 185.789062 53.15625 186.246094 52.257812 186.007812 C 43.308594 183.617188 36.277344 196.421875 39.078125 201.828125 C 40.960938 205.460938 42.519531 208.21875 45.109375 212.382812 C 46.113281 211.578125 48.066406 211.660156 49.4375 209.988281 " fill-opacity="1" fill-rule="evenodd"/><path fill="#d0d4e3" d="M 49.304688 180.65625 C 47.058594 180.484375 45.171875 176.804688 42.808594 176.707031 C 39.328125 176.722656 36.503906 180.796875 33.847656 186.132812 C 30.167969 193.53125 27.710938 204.011719 29.59375 206.625 C 31.097656 208.722656 34.285156 210.867188 36.292969 210.21875 C 37.980469 209.675781 39.402344 210.363281 40.523438 210.953125 C 42.511719 212.007812 43.4375 213.0625 45.601562 211.3125 C 49.953125 207.789062 47.515625 198.363281 48.863281 194.730469 C 50.796875 189.511719 56.492188 186.085938 54.449219 183.074219 C 53.667969 181.921875 51.269531 180.800781 49.304688 180.65625 " fill-opacity="1" fill-rule="evenodd"/><path fill="#eaeaf3" d="M 46.914062 185.296875 C 45.289062 187.359375 43.378906 189.882812 42.878906 189.441406 C 42.40625 189.023438 42.535156 187.324219 42.796875 185.421875 C 43.074219 183.386719 40.109375 180.074219 38.535156 181.960938 C 37.253906 183.5 36.0625 185.582031 34.898438 187.921875 C 31.472656 194.8125 29.25 203.816406 31 206.253906 C 32.402344 208.203125 35.15625 209.785156 36.136719 208.15625 C 37.742188 205.492188 38.601562 206.082031 39.246094 207.175781 C 40.976562 210.117188 42.710938 212.371094 44.519531 208.222656 C 46.863281 202.867188 45.207031 193.804688 51.25 187.808594 C 55.449219 183.636719 50.875 180.292969 46.914062 185.296875 " fill-opacity="1" fill-rule="evenodd"/><path fill="#965a5b" d="M 141.71875 170.433594 C 141.71875 170.433594 142.160156 179.496094 144.082031 183.121094 L 162.71875 180.839844 C 162.71875 180.839844 165.050781 177.039062 164.765625 175.546875 C 164.765625 175.546875 164.761719 175.539062 164.757812 175.507812 C 164.691406 175.097656 164.035156 171.488281 162.6875 170.972656 L 162.535156 169.425781 C 162.535156 169.425781 164.414062 163.492188 161.96875 162.675781 L 161.175781 162.191406 C 161.175781 162.191406 163.195312 158.753906 160.367188 157.789062 C 160.367188 157.789062 159.195312 156.851562 158.265625 157.925781 C 158.265625 157.925781 159.09375 155.0625 156.621094 155.246094 C 154.148438 155.433594 153.488281 156.308594 153.488281 156.308594 L 152.28125 157.003906 L 151.820312 155.207031 C 151.820312 155.207031 151.390625 154.359375 150.089844 154.652344 C 148.78125 154.953125 149.007812 156.457031 149.007812 156.457031 L 149.152344 157.179688 C 149.152344 157.179688 147.992188 157.070312 147.585938 158.441406 C 147.183594 159.8125 147.074219 160.925781 146.488281 161.75 L 143.984375 166.5625 C 143.984375 166.5625 142.003906 168.785156 141.71875 170.433594 " fill-opacity="1" fill-rule="nonzero"/><path fill="#843d49" d="M 148.664062 169.824219 C 148.660156 170.09375 148.675781 170.351562 148.710938 170.601562 C 148.894531 171.878906 149.640625 172.992188 150.125 174.1875 C 150.578125 175.296875 150.808594 176.496094 150.804688 177.695312 C 150.800781 178.117188 150.773438 178.546875 150.914062 178.949219 C 151.054688 179.34375 151.421875 179.699219 151.84375 179.667969 C 152.398438 179.625 152.695312 178.972656 152.691406 178.414062 C 152.691406 177.859375 152.515625 177.300781 152.636719 176.757812 C 152.941406 175.4375 154.828125 174.949219 155.109375 173.621094 C 154.574219 173.9375 153.96875 174.164062 153.347656 174.152344 C 152.726562 174.144531 152.085938 173.871094 151.746094 173.347656 C 151.109375 172.375 151.738281 171.046875 152.609375 170.277344 C 152.734375 170.167969 152.871094 170.046875 152.894531 169.882812 C 152.921875 169.695312 152.789062 169.527344 152.667969 169.382812 C 151.714844 168.230469 151.355469 166.550781 150.476562 165.515625 C 149.394531 166.523438 148.695312 168.269531 148.664062 169.824219 " fill-opacity="1" fill-rule="nonzero"/><path fill="#843d49" d="M 152.320312 180.3125 L 160.359375 181.402344 C 160.359375 181.402344 162.289062 178.214844 162.058594 177.011719 C 162.058594 177.011719 162.058594 177.003906 162.054688 176.980469 C 161.117188 177.0625 159.757812 177.101562 159.238281 176.753906 L 157.097656 177.738281 L 152.320312 180.3125 " fill-opacity="1" fill-rule="nonzero"/><path fill="#3d3d43" d="M 148.234375 145.679688 C 149.535156 145.382812 149.964844 146.230469 149.964844 146.230469 L 152.28125 157.003906 L 150.769531 158.398438 C 150.769531 158.398438 149.75 157.300781 149.152344 157.179688 L 147.296875 148.203125 L 147.152344 147.480469 C 147.152344 147.480469 146.925781 145.976562 148.234375 145.679688 " fill-opacity="1" fill-rule="nonzero"/><path fill="#965a5b" d="M 82.816406 214.550781 C 83.023438 214.554688 83.230469 214.558594 83.433594 214.570312 C 86.253906 214.636719 89.058594 214.855469 91.851562 215.214844 L 91.867188 215.214844 C 92.339844 215.273438 92.816406 215.339844 93.289062 215.410156 L 93.335938 215.417969 C 95.539062 215.738281 97.726562 216.152344 99.898438 216.652344 C 99.976562 216.667969 100.058594 216.691406 100.136719 216.707031 C 101.988281 217.140625 103.828125 217.636719 105.648438 218.195312 C 107.695312 218.824219 109.929688 219.585938 112.074219 219.035156 C 113.992188 218.546875 115.230469 216.132812 116.425781 214.699219 C 118.027344 212.785156 119.976562 211.164062 122.144531 209.9375 L 122.179688 209.917969 C 122.425781 209.773438 122.679688 209.640625 122.9375 209.507812 C 122.976562 209.488281 122.996094 209.476562 122.996094 209.476562 C 123.523438 209.210938 124.058594 208.964844 124.605469 208.746094 C 126.652344 207.921875 128.9375 207.390625 130.597656 205.847656 C 131.011719 205.464844 131.382812 204.996094 131.546875 204.472656 C 131.601562 204.277344 131.636719 204.082031 131.625 203.875 C 131.605469 203.109375 130.851562 202.363281 130.117188 202.585938 C 130.179688 201.453125 132.101562 201.140625 132.152344 200.011719 C 132.175781 199.457031 131.691406 198.984375 131.164062 198.832031 C 130.628906 198.683594 130.0625 198.78125 129.519531 198.875 C 126.1875 199.457031 122.863281 200.035156 119.53125 200.613281 C 119.074219 200.691406 118.609375 200.769531 118.15625 200.851562 C 116.152344 201.203125 114.152344 201.554688 112.152344 201.902344 C 111.933594 201.214844 111.714844 200.527344 111.5 199.839844 C 111.484375 199.804688 111.480469 199.773438 111.46875 199.738281 C 112.042969 199.195312 112.675781 198.726562 113.320312 198.265625 L 113.335938 198.261719 C 113.976562 197.800781 114.621094 197.359375 115.238281 196.871094 C 115.621094 196.5625 115.996094 196.234375 116.339844 195.878906 C 116.582031 195.628906 116.808594 195.378906 117.011719 195.105469 C 117.058594 195.042969 117.105469 194.976562 117.152344 194.917969 C 117.535156 194.367188 117.835938 193.769531 117.996094 193.121094 C 118.378906 191.589844 117.785156 189.730469 116.34375 189.082031 C 116.132812 189.984375 115.675781 190.789062 115.066406 191.492188 C 114.8125 191.789062 114.527344 192.070312 114.214844 192.332031 C 113.671875 192.800781 113.0625 193.214844 112.429688 193.558594 C 110.640625 194.542969 108.660156 195.140625 106.855469 196.101562 C 104.597656 197.300781 102.675781 199.027344 100.609375 200.53125 C 98.542969 202.035156 96.207031 203.347656 93.65625 203.511719 C 93.097656 203.542969 92.507812 203.53125 91.941406 203.566406 C 91.273438 203.613281 90.636719 203.738281 90.085938 204.105469 C 89.5625 204.460938 89.195312 205 88.84375 205.527344 C 87.464844 207.585938 86.089844 209.652344 84.710938 211.714844 C 84.089844 212.648438 83.464844 213.578125 82.839844 214.515625 L 82.816406 214.550781 " fill-opacity="1" fill-rule="nonzero"/><path fill="#3d3d43" d="M 152.613281 161.957031 L 152.808594 161.84375 L 153.226562 161.605469 L 153.367188 162.273438 L 155.492188 172.539062 L 155.5 172.582031 L 155.082031 174.613281 L 155.082031 174.617188 C 155.082031 174.617188 154.84375 176.417969 153.902344 174.722656 L 152.78125 173.257812 L 152.769531 173.203125 L 150.128906 161.496094 L 150.121094 161.488281 L 149.886719 160.433594 C 150.207031 161.113281 151.035156 162.390625 152.613281 161.957031 " fill-opacity="1" fill-rule="nonzero"/><path fill="#843d49" d="M 149.722656 160.039062 C 149.710938 160.523438 149.800781 160.917969 149.960938 161.226562 C 150.007812 161.324219 150.0625 161.410156 150.121094 161.488281 L 150.128906 161.496094 C 150.800781 162.367188 152.160156 162.40625 153.066406 162.316406 C 153.171875 162.308594 153.273438 162.292969 153.367188 162.273438 C 153.722656 162.226562 153.953125 162.167969 153.953125 162.167969 C 153.953125 162.167969 157.882812 158.3125 157.90625 158.203125 C 156.453125 158.382812 154.074219 161.132812 154.074219 161.132812 L 153.226562 161.605469 L 152.808594 161.84375 L 152.613281 161.957031 C 151.035156 162.390625 150.207031 161.113281 149.886719 160.433594 C 149.796875 160.25 149.75 160.109375 149.734375 160.058594 L 149.722656 160.039062 " fill-opacity="1" fill-rule="nonzero"/><path fill="#30617d" d="M 187.855469 181.625 L 136.335938 178.519531 L 121.175781 194.375 L 165.554688 206.410156 L 184.621094 189.015625 L 189.148438 184.296875 C 189.148438 184.296875 190.953125 181.8125 187.855469 181.625 " fill-opacity="1" fill-rule="nonzero"/><path fill="#3c7093" d="M 97.875 223.910156 L 138.65625 227.492188 C 142.058594 227.644531 144.960938 224.59375 144.960938 224.59375 L 186.949219 191.367188 C 186.949219 191.367188 188.402344 189.460938 186.511719 189.261719 L 184.339844 189.148438 L 136.28125 186.714844 L 135.710938 187.152344 L 134.042969 188.457031 L 118.152344 200.851562 C 118.40625 200.808594 118.667969 200.761719 118.917969 200.71875 C 119.121094 200.679688 119.324219 200.648438 119.527344 200.613281 C 119.578125 200.601562 119.632812 200.597656 119.6875 200.585938 C 121.46875 200.277344 123.25 199.964844 125.03125 199.652344 C 126.527344 199.394531 128.019531 199.136719 129.515625 198.875 C 130.058594 198.78125 130.628906 198.683594 131.160156 198.832031 C 131.691406 198.984375 132.171875 199.457031 132.148438 200.007812 C 132.09375 201.140625 130.179688 201.453125 130.113281 202.585938 C 130.847656 202.359375 131.601562 203.109375 131.625 203.875 C 131.632812 204.082031 131.597656 204.277344 131.542969 204.472656 C 131.378906 204.996094 131.011719 205.464844 130.597656 205.847656 C 129.179688 207.164062 127.304688 207.742188 125.515625 208.398438 C 125.203125 208.511719 124.902344 208.625 124.605469 208.742188 C 121.445312 210.019531 118.609375 212.085938 116.425781 214.699219 C 115.226562 216.132812 113.992188 218.542969 112.074219 219.035156 C 111.964844 219.058594 111.863281 219.082031 111.757812 219.105469 C 111.4375 219.167969 111.121094 219.203125 110.796875 219.214844 C 109.054688 219.289062 107.285156 218.699219 105.644531 218.195312 C 105.398438 218.117188 105.144531 218.039062 104.894531 217.96875 L 104.890625 217.96875 C 103.835938 217.648438 102.769531 217.355469 101.699219 217.089844 C 101.183594 216.957031 100.660156 216.828125 100.136719 216.707031 C 100.054688 216.691406 99.972656 216.667969 99.894531 216.652344 L 97.578125 218.828125 C 95.492188 221.285156 97.875 223.910156 97.875 223.910156 " fill-opacity="1" fill-rule="nonzero"/><path fill="#2b5469" d="M 97.875 223.910156 L 97.578125 218.824219 L 100.136719 216.703125 C 97.886719 216.175781 95.617188 215.75 93.332031 215.414062 L 92.527344 216.109375 C 91.015625 221.230469 97.875 223.910156 97.875 223.910156 " fill-opacity="1" fill-rule="nonzero"/><path fill="#2b5469" d="M 111.53125 199.859375 C 111.953125 201.257812 112.367188 202.660156 112.785156 204.058594 C 112.949219 204.578125 116.304688 202.285156 116.484375 202.175781 C 117.292969 201.683594 118.113281 201.210938 118.921875 200.71875 C 119.441406 200.398438 119.953125 200.074219 120.453125 199.730469 C 121.789062 198.808594 123.035156 197.769531 124.277344 196.726562 C 127.539062 193.996094 130.796875 191.269531 134.0625 188.542969 C 134.613281 188.082031 135.164062 187.621094 135.714844 187.152344 C 135.902344 187 136.097656 186.839844 136.285156 186.679688 C 134.660156 186.367188 133.730469 184.46875 133.941406 182.832031 L 133.941406 182.8125 C 134.167969 181.179688 135.214844 179.777344 136.308594 178.546875 C 132.53125 181.792969 128.757812 185.039062 124.984375 188.289062 C 124.324219 188.855469 123.671875 189.421875 123.011719 189.984375 C 120.28125 192.335938 117.542969 194.6875 114.808594 197.039062 C 114.386719 197.40625 113.957031 197.769531 113.53125 198.140625 C 112.867188 198.714844 112.195312 199.285156 111.53125 199.859375 " fill-opacity="1" fill-rule="nonzero"/><path fill="#abcad9" d="M 133.941406 182.808594 L 133.9375 182.828125 C 133.730469 184.46875 134.65625 186.367188 136.285156 186.679688 C 136.09375 186.835938 135.898438 187 135.710938 187.152344 L 136.28125 186.710938 L 184.339844 189.148438 L 184.617188 189.011719 C 184.617188 189.011719 184.839844 186.261719 183.492188 185.5 L 133.941406 182.808594 " fill-opacity="1" fill-rule="nonzero"/><g clip-path="url(#fac21df791)"><path fill="#3c7093" d="M 142.492188 226.457031 L 193.992188 192.273438 C 193.992188 192.273438 194.417969 189.871094 191.84375 189.511719 L 171.945312 188.710938 L 142.492188 226.457031 " fill-opacity="1" fill-rule="nonzero"/></g><path fill="#1e1d1d" d="M 100.464844 47.195312 C 101.121094 51.917969 100.152344 56.101562 100.152344 56.101562 C 100.152344 56.101562 100.425781 53.597656 98.605469 50.234375 L 96.890625 64.039062 C 96.890625 64.039062 96.308594 48.402344 95.214844 45.816406 C 94.125 43.230469 87.679688 40.652344 86.285156 39.890625 C 84.894531 39.125 81.035156 41.421875 72.910156 41.257812 C 64.777344 41.082031 57.03125 39.417969 54.839844 43.472656 C 53.109375 46.660156 56.679688 48.003906 59.425781 51.019531 L 59.449219 51.042969 C 60.175781 51.828125 61 52.4375 61.882812 52.78125 C 61.464844 52.730469 54.792969 51.71875 52.710938 47.925781 C 52.710938 47.925781 51.074219 60.011719 50.6875 69.523438 C 50.6875 69.523438 49.355469 71.03125 48.472656 69.523438 C 47.496094 67.855469 47.722656 64.636719 44.898438 62.328125 C 44.144531 61.714844 40.414062 62.296875 40.414062 62.296875 C 40.1875 57.332031 40.472656 47.683594 40.894531 42.570312 L 40.925781 42.359375 L 41.070312 41.558594 C 40.960938 41.894531 39.109375 38.484375 41.347656 34.015625 C 43.585938 29.53125 89.191406 26.246094 90.402344 30.980469 C 90.402344 30.980469 90.464844 31 90.585938 31.046875 C 91.851562 31.496094 99.460938 34.503906 101.058594 41.464844 L 98.789062 39.789062 C 98.847656 39.949219 99.824219 42.613281 100.464844 47.195312 " fill-opacity="1" fill-rule="nonzero"/><path fill="#c27035" d="M 101.074219 39.460938 C 101.074219 39.460938 97.632812 4.542969 63.460938 12.089844 C 30.65625 19.339844 38.386719 53.769531 38.386719 53.769531 C 38.386719 53.769531 62.808594 34.765625 101.074219 39.460938 " fill-opacity="1" fill-rule="nonzero"/><path fill="#b3532a" d="M 38.132812 55.785156 C 38.132812 55.785156 48.007812 48.5625 67.234375 47.894531 C 72.40625 47.714844 88.832031 45.105469 109.058594 49.464844 C 110.371094 49.75 110.941406 48.152344 110.488281 47.5625 C 107.125 43.199219 104.148438 41.085938 100.96875 38.667969 C 96.492188 36.03125 83.429688 36.125 71.578125 37.050781 C 47.363281 38.933594 36.515625 51.773438 36.515625 51.773438 C 36.515625 51.773438 35.914062 56.417969 38.132812 55.785156 " fill-opacity="1" fill-rule="nonzero"/><path fill="#c78a40" d="M 36.613281 54.578125 C 36.613281 54.578125 46.601562 45.902344 64.730469 45.875 C 67.945312 45.875 81.640625 44.542969 93.015625 45.085938 C 102.457031 45.539062 110.695312 47.832031 110.488281 47.5625 C 107.125 43.199219 104.148438 41.085938 100.96875 38.667969 C 96.492188 36.03125 83.429688 36.125 71.578125 37.050781 C 47.363281 38.933594 37.519531 50.539062 37.519531 50.539062 C 37.519531 50.539062 35.445312 51.773438 36.613281 54.578125 " fill-opacity="1" fill-rule="nonzero"/><path fill="#c78a40" d="M 77.714844 36.644531 C 77.714844 36.644531 76.476562 7.960938 51.71875 17.148438 L 49.191406 18.453125 C 49.191406 18.453125 50.492188 15.949219 56.027344 12.699219 C 60.550781 10.042969 90.585938 0.640625 96.882812 38.816406 L 79.898438 38.273438 L 77.714844 36.644531 " fill-opacity="1" fill-rule="nonzero"/><path fill="#c78a40" d="M 54.964844 40.488281 C 54.964844 40.488281 55.507812 21.535156 45.65625 24 C 35.808594 26.460938 37.863281 50.507812 37.863281 50.507812 C 37.863281 50.507812 42.589844 44.441406 53.695312 42.347656 L 54.964844 40.488281 " fill-opacity="1" fill-rule="nonzero"/><path fill="#c27035" d="M 41.160156 30.710938 C 38.921875 32.925781 37.691406 42.585938 38.699219 49.414062 C 38.699219 49.414062 42.75 45.972656 45.9375 44.0625 C 48.804688 42.34375 47.121094 24.804688 41.160156 30.710938 " fill-opacity="1" fill-rule="nonzero"/><path fill="#c99a53" d="M 74.855469 18.660156 C 74.855469 18.660156 77.421875 22.605469 82.027344 22.550781 C 86.628906 22.496094 91.292969 22.980469 88.214844 18.78125 C 88.214844 18.78125 91.976562 22.503906 93.046875 27.714844 C 94.125 32.933594 80.484375 33.644531 78.886719 28.28125 C 77.289062 22.914062 74.855469 18.660156 74.855469 18.660156 " fill-opacity="1" fill-rule="nonzero"/><path fill="#ffffff" d="M 79.742188 36.796875 C 79.742188 36.796875 78.976562 13.832031 61.484375 12.691406 C 61.484375 12.691406 80.78125 11.746094 79.742188 36.796875 " fill-opacity="1" fill-rule="nonzero"/><path fill="#c99a53" d="M 51.664062 26.925781 C 51.664062 26.925781 51.96875 32.203125 46.082031 29.324219 C 46.082031 29.324219 47.128906 30.839844 47.796875 34.777344 C 48.460938 38.714844 55.179688 36.058594 54.207031 32.855469 C 53.679688 31.121094 54.054688 31.28125 51.664062 26.925781 " fill-opacity="1" fill-rule="nonzero"/><path fill="#c99a53" d="M 54.933594 39.011719 C 54.933594 39.011719 55.222656 21.34375 45.753906 23.976562 C 45.753906 23.976562 53.484375 22.460938 54.933594 39.011719 " fill-opacity="1" fill-rule="nonzero"/><path fill="#c99a53" d="M 63.253906 38.847656 C 68.207031 38.234375 70.582031 37.863281 74.417969 37.78125 C 74.417969 37.78125 66.28125 43.097656 86.515625 44.734375 C 81.0625 44.550781 71.828125 45.308594 69.296875 45.367188 C 66.761719 45.429688 59.800781 45.949219 57.773438 46.261719 C 68.578125 44.621094 74.078125 38.832031 63.253906 38.847656 " fill-opacity="1" fill-rule="nonzero"/><path fill="#ffffff" d="M 46.023438 49.207031 C 46.023438 49.207031 54.523438 46.488281 65.257812 45.75 C 72.558594 45.246094 89.230469 42.828125 107.171875 46.972656 C 107.171875 46.972656 89.785156 41.996094 69.164062 44.144531 C 58.589844 45.246094 58.546875 44.386719 46.023438 49.207031 " fill-opacity="1" fill-rule="nonzero"/><path fill="#b3532a" d="M 49.191406 18.453125 C 49.191406 18.453125 51.3125 14.011719 59.207031 13.476562 C 67.105469 12.941406 78.132812 18.160156 78.792969 38.960938 L 76.789062 36.527344 C 77.433594 23.164062 63.894531 6.445312 49.191406 18.453125 " fill-opacity="1" fill-rule="nonzero"/><path fill="#b3532a" d="M 39.910156 32.851562 C 39.910156 32.851562 40.8125 29.753906 43.117188 29.496094 C 45.417969 29.230469 46.519531 33.226562 46.84375 37.726562 C 46.84375 37.726562 45.996094 32.164062 44.257812 30.96875 C 42.523438 29.769531 40.867188 31.101562 39.910156 32.851562 " fill-opacity="1" fill-rule="nonzero"/><path fill="#c99a53" d="M 80.078125 39.136719 C 80.078125 39.136719 88.421875 38.375 97.636719 39.53125 C 97.636719 39.53125 87.277344 35.617188 80.078125 39.136719 " fill-opacity="1" fill-rule="nonzero"/><path fill="#c99a53" d="M 37.199219 50.792969 C 38.492188 49.03125 41.605469 46.132812 45.964844 44.054688 C 45.964844 44.054688 39.335938 47.859375 42.632812 50.316406 C 38.851562 52.558594 34.601562 54.332031 37.199219 50.792969 " fill-opacity="1" fill-rule="nonzero"/><path fill="#c99a53" d="M 55.019531 41.125 C 55.019531 41.125 55.148438 44.027344 53.910156 44.707031 C 52.679688 45.382812 47.492188 45.273438 46.359375 45.324219 C 52.5625 44.742188 54.207031 43.886719 55.019531 41.125 " fill-opacity="1" fill-rule="nonzero"/><path fill="#ffffff" d="M 48.253906 42.738281 C 48.253906 42.738281 49.238281 29.371094 45.003906 27.785156 C 42.746094 26.9375 40.828125 29.242188 40.828125 29.242188 C 40.828125 29.242188 42.929688 27.148438 45.484375 29.285156 C 48.039062 31.421875 48.253906 42.738281 48.253906 42.738281 " fill-opacity="1" fill-rule="nonzero"/><g fill="#545454" fill-opacity="1"><g transform="translate(37.067932, 323.596146)"><g><path d="M 6.4375 4.3125 C 6.46875 3.5 6.234375 2.863281 5.734375 2.40625 C 5.234375 1.945312 4.53125 1.703125 3.625 1.671875 C 2.726562 1.640625 2 1.84375 1.4375 2.28125 C 0.882812 2.726562 0.59375 3.347656 0.5625 4.140625 C 0.53125 5.160156 1.015625 5.953125 2.015625 6.515625 L 1.578125 7.296875 C 0.960938 6.972656 0.5 6.535156 0.1875 5.984375 C -0.125 5.429688 -0.269531 4.796875 -0.25 4.078125 C -0.21875 3.347656 -0.0390625 2.71875 0.28125 2.1875 C 0.601562 1.664062 1.050781 1.269531 1.625 1 C 2.207031 0.738281 2.882812 0.625 3.65625 0.65625 C 4.8125 0.6875 5.707031 1.023438 6.34375 1.671875 C 6.988281 2.328125 7.289062 3.207031 7.25 4.3125 C 7.226562 5.09375 7.054688 5.738281 6.734375 6.25 C 6.421875 6.757812 5.957031 7.128906 5.34375 7.359375 L 5.078125 6.40625 C 5.492188 6.25 5.820312 5.988281 6.0625 5.625 C 6.300781 5.257812 6.425781 4.820312 6.4375 4.3125 Z M 6.4375 4.3125 "/></g></g></g><g fill="#545454" fill-opacity="1"><g transform="translate(36.81806, 331.225555)"><g><path d="M 3.421875 7.84375 C 2.660156 7.8125 2 7.640625 1.4375 7.328125 C 0.875 7.023438 0.445312 6.597656 0.15625 6.046875 C -0.132812 5.492188 -0.269531 4.847656 -0.25 4.109375 C -0.21875 3.359375 -0.0390625 2.71875 0.28125 2.1875 C 0.601562 1.65625 1.054688 1.253906 1.640625 0.984375 C 2.222656 0.710938 2.894531 0.59375 3.65625 0.625 C 4.820312 0.65625 5.722656 1 6.359375 1.65625 C 6.992188 2.3125 7.289062 3.207031 7.25 4.34375 C 7.226562 5.09375 7.0625 5.734375 6.75 6.265625 C 6.4375 6.804688 5.992188 7.207031 5.421875 7.46875 C 4.847656 7.738281 4.179688 7.863281 3.421875 7.84375 Z M 3.453125 6.84375 C 4.359375 6.875 5.078125 6.671875 5.609375 6.234375 C 6.140625 5.796875 6.414062 5.160156 6.4375 4.328125 C 6.46875 3.492188 6.234375 2.84375 5.734375 2.375 C 5.242188 1.90625 4.539062 1.65625 3.625 1.625 C 2.707031 1.59375 1.972656 1.796875 1.421875 2.234375 C 0.878906 2.671875 0.59375 3.300781 0.5625 4.125 C 0.539062 4.957031 0.78125 5.609375 1.28125 6.078125 C 1.78125 6.554688 2.503906 6.8125 3.453125 6.84375 Z M 3.453125 6.84375 "/></g></g></g><g fill="#545454" fill-opacity="1"><g transform="translate(36.548929, 339.44303)"><g><path d="M -0.1875 5.59375 L 6.140625 1.890625 L 5.640625 1.90625 L 4.765625 1.90625 L -0.0625 1.75 L -0.03125 0.875 L 7.25 1.109375 L 7.21875 2.25 L 0.84375 5.984375 C 1.519531 5.960938 2.007812 5.957031 2.3125 5.96875 L 7.09375 6.125 L 7.0625 7.015625 L -0.21875 6.78125 Z M -0.1875 5.59375 "/></g></g></g><g fill="#545454" fill-opacity="1"><g transform="translate(36.299058, 347.072439)"><g><path d="M 1.796875 6.625 C 1.117188 6.601562 0.601562 6.328125 0.25 5.796875 C -0.09375 5.265625 -0.25 4.519531 -0.21875 3.5625 C -0.164062 1.789062 0.484375 0.785156 1.734375 0.546875 L 1.890625 1.5 C 1.453125 1.59375 1.125 1.8125 0.90625 2.15625 C 0.6875 2.507812 0.566406 2.992188 0.546875 3.609375 C 0.523438 4.253906 0.617188 4.753906 0.828125 5.109375 C 1.035156 5.460938 1.347656 5.644531 1.765625 5.65625 C 2.003906 5.664062 2.203125 5.617188 2.359375 5.515625 C 2.515625 5.410156 2.640625 5.257812 2.734375 5.0625 C 2.835938 4.863281 2.925781 4.628906 3 4.359375 C 3.082031 4.097656 3.164062 3.804688 3.25 3.484375 C 3.394531 2.898438 3.535156 2.460938 3.671875 2.171875 C 3.816406 1.878906 3.96875 1.648438 4.125 1.484375 C 4.289062 1.316406 4.476562 1.191406 4.6875 1.109375 C 4.894531 1.035156 5.132812 1 5.40625 1 C 6.03125 1.019531 6.503906 1.269531 6.828125 1.75 C 7.148438 2.238281 7.300781 2.925781 7.28125 3.8125 C 7.25 4.644531 7.097656 5.273438 6.828125 5.703125 C 6.554688 6.140625 6.117188 6.4375 5.515625 6.59375 L 5.375 5.609375 C 5.757812 5.515625 6.039062 5.320312 6.21875 5.03125 C 6.40625 4.738281 6.507812 4.328125 6.53125 3.796875 C 6.539062 3.210938 6.453125 2.765625 6.265625 2.453125 C 6.085938 2.140625 5.804688 1.972656 5.421875 1.953125 C 5.203125 1.953125 5.019531 2.007812 4.875 2.125 C 4.726562 2.238281 4.597656 2.40625 4.484375 2.625 C 4.367188 2.84375 4.226562 3.285156 4.0625 3.953125 C 4 4.171875 3.9375 4.390625 3.875 4.609375 C 3.820312 4.828125 3.753906 5.035156 3.671875 5.234375 C 3.597656 5.441406 3.503906 5.628906 3.390625 5.796875 C 3.285156 5.972656 3.160156 6.125 3.015625 6.25 C 2.867188 6.375 2.691406 6.46875 2.484375 6.53125 C 2.285156 6.601562 2.054688 6.632812 1.796875 6.625 Z M 1.796875 6.625 "/></g></g></g><g fill="#545454" fill-opacity="1"><g transform="translate(36.068277, 354.118932)"><g><path d="M 6.34375 3.9375 L -0.125 3.71875 L -0.09375 2.734375 L 6.375 2.953125 L 6.46875 0.453125 L 7.28125 0.46875 L 7.078125 6.453125 L 6.265625 6.4375 Z M 6.34375 3.9375 "/></g></g></g><g fill="#545454" fill-opacity="1"><g transform="translate(35.856926, 360.572206)"><g><path d="M -0.203125 6.015625 L 2.875 4.21875 L 2.953125 1.953125 L -0.0625 1.859375 L -0.03125 0.875 L 7.25 1.109375 L 7.140625 4.53125 C 7.109375 5.34375 6.898438 5.96875 6.515625 6.40625 C 6.140625 6.84375 5.628906 7.050781 4.984375 7.03125 C 4.441406 7.007812 3.988281 6.832031 3.625 6.5 C 3.269531 6.175781 3.050781 5.738281 2.96875 5.1875 L -0.234375 7.15625 Z M 5 6.046875 C 5.425781 6.054688 5.753906 5.921875 5.984375 5.640625 C 6.210938 5.359375 6.332031 4.945312 6.34375 4.40625 L 6.421875 2.078125 L 3.734375 1.984375 L 3.65625 4.359375 C 3.632812 4.878906 3.742188 5.285156 3.984375 5.578125 C 4.222656 5.867188 4.5625 6.023438 5 6.046875 Z M 5 6.046875 "/></g></g></g><g fill="#545454" fill-opacity="1"><g transform="translate(35.607054, 368.201614)"><g><path d="M -0.234375 3.78125 C -0.210938 3.175781 -0.0859375 2.65625 0.140625 2.21875 C 0.378906 1.78125 0.707031 1.445312 1.125 1.21875 C 1.539062 0.988281 2.035156 0.882812 2.609375 0.90625 L 7.25 1.046875 L 7.21875 2.03125 L 2.671875 1.890625 C 2.003906 1.867188 1.492188 2.019531 1.140625 2.34375 C 0.785156 2.664062 0.597656 3.144531 0.578125 3.78125 C 0.554688 4.4375 0.71875 4.953125 1.0625 5.328125 C 1.40625 5.710938 1.921875 5.914062 2.609375 5.9375 L 7.09375 6.078125 L 7.0625 7.0625 L 2.515625 6.921875 C 1.929688 6.898438 1.425781 6.753906 1 6.484375 C 0.582031 6.222656 0.265625 5.859375 0.046875 5.390625 C -0.160156 4.929688 -0.253906 4.394531 -0.234375 3.78125 Z M -0.234375 3.78125 "/></g></g></g><g fill="#545454" fill-opacity="1"><g transform="translate(35.357183, 375.831022)"><g><path d="M 6.4375 4.3125 C 6.46875 3.5 6.234375 2.863281 5.734375 2.40625 C 5.234375 1.945312 4.53125 1.703125 3.625 1.671875 C 2.726562 1.640625 2 1.84375 1.4375 2.28125 C 0.882812 2.726562 0.59375 3.347656 0.5625 4.140625 C 0.53125 5.160156 1.015625 5.953125 2.015625 6.515625 L 1.578125 7.296875 C 0.960938 6.972656 0.5 6.535156 0.1875 5.984375 C -0.125 5.429688 -0.269531 4.796875 -0.25 4.078125 C -0.21875 3.347656 -0.0390625 2.71875 0.28125 2.1875 C 0.601562 1.664062 1.050781 1.269531 1.625 1 C 2.207031 0.738281 2.882812 0.625 3.65625 0.65625 C 4.8125 0.6875 5.707031 1.023438 6.34375 1.671875 C 6.988281 2.328125 7.289062 3.207031 7.25 4.3125 C 7.226562 5.09375 7.054688 5.738281 6.734375 6.25 C 6.421875 6.757812 5.957031 7.128906 5.34375 7.359375 L 5.078125 6.40625 C 5.492188 6.25 5.820312 5.988281 6.0625 5.625 C 6.300781 5.257812 6.425781 4.820312 6.4375 4.3125 Z M 6.4375 4.3125 "/></g></g></g><g fill="#545454" fill-opacity="1"><g transform="translate(35.107311, 383.460431)"><g><path d="M 6.34375 3.9375 L -0.125 3.71875 L -0.09375 2.734375 L 6.375 2.953125 L 6.46875 0.453125 L 7.28125 0.46875 L 7.078125 6.453125 L 6.265625 6.4375 Z M 6.34375 3.9375 "/></g></g></g><g fill="#545454" fill-opacity="1"><g transform="translate(34.895959, 389.913704)"><g><path d="M -0.03125 0.96875 L 7.25 1.203125 L 7.21875 2.203125 L -0.0625 1.96875 Z M -0.03125 0.96875 "/></g></g></g><g fill="#545454" fill-opacity="1"><g transform="translate(34.799829, 392.848889)"><g><path d="M 3.421875 7.84375 C 2.660156 7.8125 2 7.640625 1.4375 7.328125 C 0.875 7.023438 0.445312 6.597656 0.15625 6.046875 C -0.132812 5.492188 -0.269531 4.847656 -0.25 4.109375 C -0.21875 3.359375 -0.0390625 2.71875 0.28125 2.1875 C 0.601562 1.65625 1.054688 1.253906 1.640625 0.984375 C 2.222656 0.710938 2.894531 0.59375 3.65625 0.625 C 4.820312 0.65625 5.722656 1 6.359375 1.65625 C 6.992188 2.3125 7.289062 3.207031 7.25 4.34375 C 7.226562 5.09375 7.0625 5.734375 6.75 6.265625 C 6.4375 6.804688 5.992188 7.207031 5.421875 7.46875 C 4.847656 7.738281 4.179688 7.863281 3.421875 7.84375 Z M 3.453125 6.84375 C 4.359375 6.875 5.078125 6.671875 5.609375 6.234375 C 6.140625 5.796875 6.414062 5.160156 6.4375 4.328125 C 6.46875 3.492188 6.234375 2.84375 5.734375 2.375 C 5.242188 1.90625 4.539062 1.65625 3.625 1.625 C 2.707031 1.59375 1.972656 1.796875 1.421875 2.234375 C 0.878906 2.671875 0.59375 3.300781 0.5625 4.125 C 0.539062 4.957031 0.78125 5.609375 1.28125 6.078125 C 1.78125 6.554688 2.503906 6.8125 3.453125 6.84375 Z M 3.453125 6.84375 "/></g></g></g><g fill="#545454" fill-opacity="1"><g transform="translate(34.530698, 401.066364)"><g><path d="M -0.1875 5.59375 L 6.140625 1.890625 L 5.640625 1.90625 L 4.765625 1.90625 L -0.0625 1.75 L -0.03125 0.875 L 7.25 1.109375 L 7.21875 2.25 L 0.84375 5.984375 C 1.519531 5.960938 2.007812 5.957031 2.3125 5.96875 L 7.09375 6.125 L 7.0625 7.015625 L -0.21875 6.78125 Z M -0.1875 5.59375 "/></g></g></g></svg>