<svg xmlns="http://www.w3.org/2000/svg" xmlns:xlink="http://www.w3.org/1999/xlink" width="426" zoomAndPan="magnify" viewBox="0 0 319.5 101.999999" height="136" preserveAspectRatio="xMidYMid meet" version="1.0"><defs><g/><clipPath id="bed23e4cc6"><path d="M 264 3.804688 L 293 3.804688 L 293 29 L 264 29 Z M 264 3.804688 " clip-rule="nonzero"/></clipPath><clipPath id="e02bc0c933"><path d="M 294.214844 29.34375 L 319 29.34375 L 319 72.277344 L 294.214844 72.277344 Z M 294.214844 29.34375 " clip-rule="nonzero"/></clipPath><clipPath id="2dca7d6526"><path d="M 264 73.457031 L 292.875 73.457031 L 292.875 97.871094 L 264 97.871094 Z M 264 73.457031 " clip-rule="nonzero"/></clipPath><clipPath id="9d6587b51c"><path d="M 258.492188 3.804688 L 265 3.804688 L 265 7 L 258.492188 7 Z M 258.492188 3.804688 " clip-rule="nonzero"/></clipPath><clipPath id="f8cb4a3b12"><path d="M 258.492188 23 L 278 23 L 278 40 L 258.492188 40 Z M 258.492188 23 " clip-rule="nonzero"/></clipPath><clipPath id="e4a382382f"><path d="M 258.492188 12 L 271 12 L 271 40 L 258.492188 40 Z M 258.492188 12 " clip-rule="nonzero"/></clipPath><clipPath id="dde67be102"><path d="M 258.492188 94.699219 L 264.148438 94.699219 L 264.148438 97.871094 L 258.492188 97.871094 Z M 258.492188 94.699219 " clip-rule="nonzero"/></clipPath><clipPath id="316f08de43"><path d="M 258.492188 62 L 278 62 L 278 79 L 258.492188 79 Z M 258.492188 62 " clip-rule="nonzero"/></clipPath><clipPath id="254ee1120b"><path d="M 258.492188 62 L 271 62 L 271 89 L 258.492188 89 Z M 258.492188 62 " clip-rule="nonzero"/></clipPath><clipPath id="0aabed8b49"><path d="M 108 3.804688 L 164 3.804688 L 164 98.761719 L 108 98.761719 Z M 108 3.804688 " clip-rule="nonzero"/></clipPath><clipPath id="0018374b5f"><path d="M 139 3.804688 L 194.515625 3.804688 L 194.515625 98.761719 L 139 98.761719 Z M 139 3.804688 " clip-rule="nonzero"/></clipPath><clipPath id="1383a0b5e3"><path d="M 0.253906 46 L 11 46 L 11 57 L 0.253906 57 Z M 0.253906 46 " clip-rule="nonzero"/></clipPath><clipPath id="ea11949278"><path d="M 97.230469 0.496094 L 265.464844 0.496094 L 265.464844 101.53125 L 97.230469 101.53125 Z M 97.230469 0.496094 " clip-rule="nonzero"/></clipPath><clipPath id="9528c598db"><path d="M 109.230469 0.496094 L 253.464844 0.496094 C 256.644531 0.496094 259.699219 1.757812 261.949219 4.011719 C 264.199219 6.261719 265.464844 9.3125 265.464844 12.496094 L 265.464844 89.53125 C 265.464844 92.710938 264.199219 95.765625 261.949219 98.015625 C 259.699219 100.265625 256.644531 101.53125 253.464844 101.53125 L 109.230469 101.53125 C 106.046875 101.53125 102.992188 100.265625 100.742188 98.015625 C 98.492188 95.765625 97.230469 92.710938 97.230469 89.53125 L 97.230469 12.496094 C 97.230469 9.3125 98.492188 6.261719 100.742188 4.011719 C 102.992188 1.757812 106.046875 0.496094 109.230469 0.496094 " clip-rule="nonzero"/></clipPath></defs><path fill="#2296b2" d="M 294.742188 29.839844 L 294.742188 35.441406 L 286.175781 28.140625 L 291.484375 27.054688 L 294.742188 29.839844 " fill-opacity="1" fill-rule="nonzero"/><path fill="#2296b2" d="M 294.742188 71.855469 L 294.742188 66.253906 L 286.175781 73.554688 L 291.484375 74.640625 L 294.742188 71.855469 " fill-opacity="1" fill-rule="nonzero"/><path fill="#2296b2" d="M 259.601562 30.34375 L 270.445312 30.34375 L 270.445312 31.707031 L 259.601562 31.707031 L 259.601562 30.34375 " fill-opacity="1" fill-rule="nonzero"/><path fill="#2296b2" d="M 259.601562 71.351562 L 270.445312 71.351562 L 270.445312 69.988281 L 259.601562 69.988281 L 259.601562 71.351562 " fill-opacity="1" fill-rule="nonzero"/><g clip-path="url(#bed23e4cc6)"><path fill="#33d9ff" d="M 264.140625 6.855469 L 270.632812 12.371094 L 270.632812 17.03125 L 283.71875 28.140625 L 292.761719 28.140625 L 264.140625 3.824219 L 264.140625 6.855469 " fill-opacity="1" fill-rule="nonzero"/></g><g clip-path="url(#e02bc0c933)"><path fill="#33d9ff" d="M 294.316406 29.472656 L 294.316406 37.148438 L 310.429688 50.847656 L 294.316406 64.546875 L 294.316406 72.222656 L 319.472656 50.847656 L 294.316406 29.472656 " fill-opacity="1" fill-rule="nonzero"/></g><g clip-path="url(#2dca7d6526)"><path fill="#33d9ff" d="M 270.632812 84.664062 L 270.632812 89.320312 L 264.140625 94.839844 L 264.140625 97.871094 L 292.761719 73.554688 L 283.71875 73.554688 L 270.632812 84.664062 " fill-opacity="1" fill-rule="nonzero"/></g><g clip-path="url(#9d6587b51c)"><path fill="#2296b2" d="M 258.492188 3.824219 L 264.132812 3.824219 L 264.132812 6.847656 L 258.492188 6.847656 L 258.492188 3.824219 " fill-opacity="1" fill-rule="nonzero"/></g><g clip-path="url(#f8cb4a3b12)"><path fill="#0f424d" d="M 275.851562 23.320312 L 262.882812 36.171875 L 258.492188 36.171875 L 258.492188 39.199219 L 262.882812 39.199219 L 277.496094 24.714844 L 275.851562 23.320312 " fill-opacity="1" fill-rule="nonzero"/></g><g clip-path="url(#e4a382382f)"><path fill="#2296b2" d="M 270.996094 22.152344 L 260.046875 12.851562 L 258.492188 12.851562 L 258.492188 39.199219 L 260.046875 39.199219 L 260.046875 14.171875 L 270.277344 22.863281 L 270.996094 22.152344 " fill-opacity="1" fill-rule="nonzero"/></g><path fill="#0f424d" d="M 290.652344 37.066406 L 282.148438 37.066406 L 282.253906 37.152344 L 282.648438 37.488281 L 282.648438 37.492188 L 287.550781 41.65625 L 296.058594 41.65625 L 290.652344 37.066406 " fill-opacity="1" fill-rule="nonzero"/><path fill="#2296b2" d="M 296.058594 41.65625 L 287.550781 41.65625 L 292.953125 46.25 L 301.460938 46.25 L 296.058594 41.65625 " fill-opacity="1" fill-rule="nonzero"/><g clip-path="url(#dde67be102)"><path fill="#2296b2" d="M 258.492188 97.859375 L 264.132812 97.859375 L 264.132812 94.835938 L 258.492188 94.835938 L 258.492188 97.859375 " fill-opacity="1" fill-rule="nonzero"/></g><g clip-path="url(#316f08de43)"><path fill="#0f424d" d="M 262.882812 62.484375 L 258.492188 62.484375 L 258.492188 65.507812 L 262.882812 65.507812 L 275.851562 78.363281 L 277.496094 76.96875 L 262.882812 62.484375 " fill-opacity="1" fill-rule="nonzero"/></g><g clip-path="url(#254ee1120b)"><path fill="#2296b2" d="M 270.277344 78.820312 L 260.046875 87.511719 L 260.046875 62.484375 L 258.492188 62.484375 L 258.492188 88.832031 L 260.046875 88.832031 L 270.996094 79.53125 L 270.277344 78.820312 " fill-opacity="1" fill-rule="nonzero"/></g><path fill="#0f424d" d="M 280.164062 37.492188 L 280.164062 37.488281 C 280.0625 37.398438 276.289062 34.195312 274.257812 32.472656 L 267.136719 39.53125 C 270.449219 39.53125 272.6875 39.53125 276.234375 39.53125 L 289.542969 50.839844 L 276.234375 62.152344 C 272.6875 62.152344 270.449219 62.152344 267.136719 62.152344 L 274.257812 69.210938 C 276.289062 67.488281 280.0625 64.285156 280.164062 64.195312 L 280.164062 64.191406 L 295.878906 50.839844 L 280.164062 37.492188 " fill-opacity="1" fill-rule="nonzero"/><path fill="#0f424d" d="M 290.652344 64.617188 L 282.148438 64.617188 L 282.253906 64.53125 L 282.648438 64.195312 L 282.648438 64.191406 L 287.550781 60.027344 L 296.058594 60.027344 L 290.652344 64.617188 " fill-opacity="1" fill-rule="nonzero"/><path fill="#2296b2" d="M 296.058594 60.027344 L 287.550781 60.027344 L 292.953125 55.433594 L 301.460938 55.433594 L 296.058594 60.027344 " fill-opacity="1" fill-rule="nonzero"/><path fill="#33d9ff" d="M 301.460938 46.25 L 292.953125 46.25 L 298.363281 50.839844 L 292.953125 55.433594 L 301.460938 55.433594 L 306.867188 50.839844 L 301.460938 46.25 " fill-opacity="1" fill-rule="nonzero"/><path fill="#33d9ff" d="M 280.164062 37.492188 L 280.164062 37.488281 C 280.0625 37.398438 276.289062 34.195312 274.257812 32.472656 L 273.15625 33.566406 C 275.179688 35.285156 277.6875 37.417969 277.773438 37.488281 L 277.773438 37.492188 L 293.488281 50.839844 L 277.773438 64.191406 L 277.773438 64.195312 C 277.6875 64.265625 275.179688 66.398438 273.15625 68.117188 L 274.257812 69.210938 C 276.289062 67.488281 280.0625 64.285156 280.164062 64.195312 L 280.164062 64.191406 L 295.878906 50.839844 L 280.164062 37.492188 " fill-opacity="1" fill-rule="nonzero"/><g clip-path="url(#0aabed8b49)"><path fill="#37b5ff" d="M 130.957031 98.734375 L 163.808594 51.28125 L 130.957031 3.832031 L 108.710938 3.832031 L 141.5625 51.28125 L 108.710938 98.734375 Z M 130.957031 98.734375 " fill-opacity="1" fill-rule="nonzero"/></g><g clip-path="url(#0018374b5f)"><path fill="#37b5ff" d="M 161.660156 98.734375 L 194.515625 51.28125 L 161.660156 3.832031 L 139.371094 3.832031 L 172.226562 51.28125 L 139.371094 98.734375 Z M 161.660156 98.734375 " fill-opacity="1" fill-rule="nonzero"/></g><path fill="#37b5ff" d="M 108.710938 33.644531 L 91.074219 51.28125 L 108.710938 68.921875 L 126.34375 51.28125 Z M 108.710938 33.644531 " fill-opacity="1" fill-rule="nonzero"/><path fill="#37b5ff" d="M 58.757812 51.300781 L 70.53125 39.523438 L 82.304688 51.300781 L 70.53125 63.074219 Z M 58.757812 51.300781 " fill-opacity="1" fill-rule="nonzero"/><path fill="#37b5ff" d="M 35.167969 42.417969 L 26.304688 51.28125 L 35.167969 60.148438 L 44.03125 51.28125 Z M 35.167969 42.417969 " fill-opacity="1" fill-rule="nonzero"/><g clip-path="url(#1383a0b5e3)"><path fill="#37b5ff" d="M 5.355469 46.222656 L 0.253906 51.28125 L 5.355469 56.339844 L 10.414062 51.28125 Z M 5.355469 46.222656 " fill-opacity="1" fill-rule="nonzero"/></g><path fill="#ffffff" d="M 160.09375 94.527344 L 189.90625 51.773438 L 188.699219 51.28125 L 189.90625 50.789062 L 160.09375 8.039062 L 147.832031 8.082031 L 176.210938 51.28125 L 147.832031 94.480469 Z M 160.09375 94.527344 " fill-opacity="1" fill-rule="nonzero"/><path fill="#37b5ff" d="M 161.035156 96.316406 L 144.472656 96.273438 L 174.015625 51.28125 L 144.472656 6.292969 L 161.035156 6.25 L 192.054688 50.746094 L 192.679688 51.015625 L 192.457031 51.328125 L 192.679688 51.640625 L 192.097656 51.910156 Z M 151.1875 92.691406 L 159.15625 92.691406 L 187.132812 52.582031 L 183.953125 51.28125 L 187.132812 49.941406 L 159.15625 9.828125 L 151.1875 9.828125 L 178.359375 51.238281 Z M 151.1875 92.691406 " fill-opacity="1" fill-rule="nonzero"/><path fill="#ffffff" d="M 128.046875 95.554688 L 135.699219 84.8125 L 132.703125 83.066406 L 154.542969 51.28125 L 132.703125 19.5 L 135.699219 17.753906 L 128.046875 7.007812 L 116.050781 7.410156 L 146.398438 51.28125 L 116.050781 95.152344 Z M 128.046875 95.554688 " fill-opacity="1" fill-rule="nonzero"/><path fill="#37b5ff" d="M 128.941406 97.390625 L 112.691406 96.855469 L 144.203125 51.28125 L 112.691406 5.710938 L 128.941406 5.171875 L 138.339844 18.335938 L 135.296875 20.082031 L 156.695312 51.28125 L 135.296875 82.441406 L 138.339844 84.1875 Z M 119.453125 93.453125 L 127.105469 93.722656 L 133.058594 85.394531 L 130.105469 83.648438 L 152.308594 51.328125 L 130.105469 18.960938 L 133.058594 17.214844 L 127.105469 8.890625 L 119.453125 9.15625 L 148.589844 51.328125 Z M 119.453125 93.453125 " fill-opacity="1" fill-rule="nonzero"/><path fill="#ffffff" d="M 107.589844 64.085938 L 120.882812 51.28125 L 107.589844 38.480469 L 103.785156 43.628906 L 110.367188 51.28125 L 103.785156 58.9375 Z M 107.589844 64.085938 " fill-opacity="1" fill-rule="nonzero"/><path fill="#37b5ff" d="M 107.367188 66.816406 L 101.457031 58.847656 L 107.949219 51.28125 L 101.457031 43.71875 L 107.367188 35.75 L 123.523438 51.28125 Z M 106.113281 59.027344 L 107.859375 61.355469 L 118.332031 51.28125 L 107.859375 41.210938 L 106.113281 43.539062 L 112.738281 51.28125 Z M 106.113281 59.027344 " fill-opacity="1" fill-rule="nonzero"/><path fill="#ffffff" d="M 70.707031 59.070312 L 77.957031 51.28125 L 70.707031 43.492188 L 66.410156 48.195312 L 68.289062 51.28125 L 66.410156 54.371094 Z M 70.707031 59.070312 " fill-opacity="1" fill-rule="nonzero"/><path fill="#37b5ff" d="M 70.707031 61.757812 L 64.171875 54.59375 L 66.1875 51.28125 L 64.171875 47.96875 L 70.707031 40.808594 L 80.421875 51.28125 Z M 68.691406 54.148438 L 70.75 56.386719 L 75.453125 51.28125 L 70.707031 46.179688 L 68.648438 48.417969 L 70.394531 51.28125 Z M 68.691406 54.148438 " fill-opacity="1" fill-rule="nonzero"/><g clip-path="url(#ea11949278)"><g clip-path="url(#9528c598db)"><path fill="#37b5ff" d="M 97.230469 0.496094 L 265.464844 0.496094 L 265.464844 101.53125 L 97.230469 101.53125 Z M 97.230469 0.496094 " fill-opacity="1" fill-rule="nonzero"/></g></g><g fill="#ffffff" fill-opacity="1"><g transform="translate(102.022223, 66.68183)"><g><path d="M 9.066406 0.347656 C 13.625 0.347656 15.703125 -3.367188 15.703125 -6.9375 L 15.703125 -9.90625 L 13.179688 -9.90625 L 13.179688 -6.9375 C 13.179688 -4.359375 11.890625 -2.03125 9.066406 -2.03125 C 6.242188 -2.03125 4.804688 -4.507812 4.804688 -6.984375 L 4.804688 -27.644531 C 4.804688 -30.765625 6.589844 -32.648438 9.066406 -32.648438 C 11.789062 -32.648438 13.226562 -31.0625 13.226562 -27.644531 L 13.226562 -24.523438 L 15.703125 -24.523438 L 15.703125 -27.691406 C 15.703125 -32.300781 13.078125 -35.023438 9.015625 -35.023438 C 4.855469 -35.023438 2.179688 -32.101562 2.179688 -27.644531 L 2.179688 -7.035156 C 2.179688 -2.972656 4.757812 0.347656 9.066406 0.347656 Z M 9.066406 0.347656 "/></g></g></g><g fill="#ffffff" fill-opacity="1"><g transform="translate(120.052033, 66.68183)"><g><path d="M 8.867188 -7.28125 L 9.957031 0 L 12.535156 0 L 8.222656 -27.691406 L 5.398438 -27.691406 L 1.140625 0 L 3.714844 0 L 4.855469 -7.234375 L 8.867188 -7.234375 Z M 8.519531 -9.414062 L 5.054688 -9.414062 L 5.695312 -13.523438 L 6.835938 -22.441406 L 7.925781 -13.523438 Z M 8.519531 -9.414062 "/></g></g></g><g fill="#ffffff" fill-opacity="1"><g transform="translate(133.970643, 66.68183)"><g><path d="M 13.078125 0 L 13.078125 -5.054688 C 13.078125 -6.589844 12.433594 -7.878906 10.996094 -8.621094 C 12.484375 -9.609375 12.878906 -11.296875 12.878906 -12.878906 L 12.878906 -21.945312 C 12.878906 -26.15625 9.957031 -27.691406 7.382812 -27.691406 L 2.128906 -27.691406 L 2.128906 0 L 4.804688 0 L 4.804688 -7.085938 L 8.371094 -7.085938 C 9.710938 -7.085938 10.453125 -6.242188 10.453125 -5.054688 L 10.453125 0 Z M 4.804688 -9.414062 L 4.804688 -25.363281 L 7.382812 -25.363281 C 9.164062 -25.363281 10.355469 -24.078125 10.355469 -21.945312 L 10.355469 -12.878906 C 10.355469 -10.652344 8.667969 -9.414062 7.382812 -9.414062 Z M 4.804688 -9.414062 "/></g></g></g><g fill="#ffffff" fill-opacity="1"><g transform="translate(149.078035, 66.68183)"><g><path d="M 4.804688 -25.414062 L 12.1875 -25.414062 L 12.1875 -27.691406 L 2.179688 -27.691406 L 2.179688 0 L 12.1875 0 L 12.1875 -2.378906 L 4.804688 -2.378906 L 4.804688 -7.234375 L 10.699219 -7.234375 L 10.699219 -9.5625 L 4.804688 -9.5625 Z M 4.804688 -25.414062 "/></g></g></g><g fill="#ffffff" fill-opacity="1"><g transform="translate(162.748987, 66.68183)"><g><path d="M 4.804688 -25.414062 L 12.1875 -25.414062 L 12.1875 -27.691406 L 2.179688 -27.691406 L 2.179688 0 L 12.1875 0 L 12.1875 -2.378906 L 4.804688 -2.378906 L 4.804688 -7.234375 L 10.699219 -7.234375 L 10.699219 -9.5625 L 4.804688 -9.5625 Z M 4.804688 -25.414062 "/></g></g></g><g fill="#ffffff" fill-opacity="1"><g transform="translate(176.41994, 66.68183)"><g><path d="M 13.078125 0 L 13.078125 -5.054688 C 13.078125 -6.589844 12.433594 -7.878906 10.996094 -8.621094 C 12.484375 -9.609375 12.878906 -11.296875 12.878906 -12.878906 L 12.878906 -21.945312 C 12.878906 -26.15625 9.957031 -27.691406 7.382812 -27.691406 L 2.128906 -27.691406 L 2.128906 0 L 4.804688 0 L 4.804688 -7.085938 L 8.371094 -7.085938 C 9.710938 -7.085938 10.453125 -6.242188 10.453125 -5.054688 L 10.453125 0 Z M 4.804688 -9.414062 L 4.804688 -25.363281 L 7.382812 -25.363281 C 9.164062 -25.363281 10.355469 -24.078125 10.355469 -21.945312 L 10.355469 -12.878906 C 10.355469 -10.652344 8.667969 -9.414062 7.382812 -9.414062 Z M 4.804688 -9.414062 "/></g></g></g><g fill="#ffffff" fill-opacity="1"><g transform="translate(191.527331, 66.68183)"><g/></g></g><g fill="#ffffff" fill-opacity="1"><g transform="translate(199.402989, 66.68183)"><g><path d="M 7.828125 0.246094 L 7.828125 4.308594 L 10.355469 4.308594 L 10.355469 0.246094 C 13.871094 -0.347656 15.65625 -3.566406 15.65625 -6.886719 L 15.65625 -27.742188 C 15.65625 -31.605469 13.226562 -34.976562 9.066406 -34.976562 C 4.507812 -34.976562 2.179688 -31.507812 2.179688 -27.792969 L 2.179688 -6.835938 C 2.179688 -3.320312 4.261719 -0.296875 7.828125 0.246094 Z M 9.066406 -32.648438 C 11.890625 -32.648438 13.128906 -30.171875 13.128906 -27.742188 L 13.128906 -6.886719 C 13.128906 -4.261719 11.789062 -2.03125 9.066406 -2.03125 C 6.144531 -2.03125 4.804688 -4.308594 4.804688 -6.835938 L 4.804688 -27.792969 C 4.804688 -30.46875 6.144531 -32.648438 9.066406 -32.648438 Z M 9.066406 -32.648438 "/></g></g></g><g fill="#ffffff" fill-opacity="1"><g transform="translate(217.531865, 66.68183)"><g><path d="M 13.226562 -5.695312 L 13.226562 -27.691406 L 10.652344 -27.691406 L 10.652344 -5.695312 C 10.652344 -3.664062 9.90625 -2.03125 7.628906 -2.03125 C 5.546875 -2.03125 4.707031 -3.863281 4.707031 -5.695312 L 4.707031 -27.691406 L 2.082031 -27.691406 L 2.082031 -5.695312 C 2.082031 -2.378906 4.210938 0.296875 7.628906 0.296875 C 11.394531 0.296875 13.226562 -2.625 13.226562 -5.695312 Z M 13.226562 -5.695312 "/></g></g></g><g fill="#ffffff" fill-opacity="1"><g transform="translate(233.233655, 66.68183)"><g><path d="M 2.179688 0 L 4.757812 0 L 4.757812 -27.691406 L 2.179688 -27.691406 Z M 2.179688 0 "/></g></g></g><g fill="#ffffff" fill-opacity="1"><g transform="translate(240.168189, 66.68183)"><g><path d="M 11.492188 -25.910156 L 11.492188 -27.691406 L 1.535156 -27.691406 L 1.535156 -25.363281 L 8.867188 -25.363281 L 0.695312 -1.882812 L 0.695312 0 L 11.34375 0 L 11.34375 -2.425781 L 3.417969 -2.425781 Z M 11.492188 -25.910156 "/></g></g></g><g fill="#ffffff" fill-opacity="1"><g transform="translate(252.848494, 66.68183)"><g><path d="M 2.675781 -6.738281 L 5.152344 -6.738281 L 5.203125 -34.726562 L 2.625 -34.726562 Z M 2.675781 0 L 5.101562 0 L 5.101562 -4.308594 L 2.675781 -4.308594 Z M 2.675781 0 "/></g></g></g></svg>