<svg xmlns="http://www.w3.org/2000/svg" xmlns:xlink="http://www.w3.org/1999/xlink" width="500" zoomAndPan="magnify" viewBox="0 0 375 374.999991" height="500" preserveAspectRatio="xMidYMid meet" version="1.0"><defs><g/><clipPath id="a45471addf"><path d="M 67.21875 7.328125 L 352.96875 7.328125 L 352.96875 293.078125 L 67.21875 293.078125 Z M 67.21875 7.328125 " clip-rule="nonzero"/></clipPath></defs><rect x="-37.5" width="450" fill="#ffffff" y="-37.499999" height="449.999989" fill-opacity="1"/><rect x="-37.5" width="450" fill="#ffffff" y="-37.499999" height="449.999989" fill-opacity="1"/><rect x="-37.5" width="450" fill="#ffffff" y="-37.499999" height="449.999989" fill-opacity="1"/><path fill="#f4f3f3" d="M 183.476562 166.203125 C 155.332031 146.496094 116.304688 166.726562 116.304688 201.25 C 116.304688 224.820312 135.476562 243.992188 159.046875 243.992188 C 193.5625 243.992188 213.8125 204.976562 194.09375 176.820312 L 180.179688 190.734375 C 188.253906 206.957031 176.136719 224.933594 159.046875 224.933594 C 145.992188 224.933594 135.363281 214.304688 135.363281 201.25 C 135.363281 184.160156 153.34375 172.035156 169.5625 180.117188 L 183.476562 166.203125 " fill-opacity="1" fill-rule="nonzero"/><path fill="#f4f3f3" d="M 159.046875 278.054688 C 224.125 278.054688 259.214844 202.011719 218.410156 152.507812 L 204.816406 166.097656 C 233.90625 203.824219 206.921875 259.007812 159.046875 259.007812 C 127.207031 259.007812 101.289062 233.089844 101.289062 201.25 C 101.289062 153.429688 156.429688 126.359375 194.199219 155.492188 L 207.792969 141.890625 C 158.179688 101 82.234375 136.265625 82.234375 201.25 C 82.234375 243.605469 116.691406 278.054688 159.046875 278.054688 " fill-opacity="1" fill-rule="nonzero"/><path fill="#f4f3f3" d="M 150.367188 201.25 C 150.367188 212.714844 167.730469 212.714844 167.730469 201.25 C 167.730469 189.972656 150.367188 189.59375 150.367188 201.25 " fill-opacity="1" fill-rule="nonzero"/><g clip-path="url(#a45471addf)"><path fill="#cd2f2d" d="M 167.730469 201.25 C 167.730469 212.714844 150.367188 212.714844 150.367188 201.25 C 150.367188 189.59375 167.730469 189.972656 167.730469 201.25 Z M 135.363281 201.25 C 135.363281 214.304688 145.992188 224.933594 159.046875 224.933594 C 176.136719 224.933594 188.253906 206.957031 180.179688 190.734375 L 194.09375 176.820312 C 213.8125 204.976562 193.5625 243.992188 159.046875 243.992188 C 135.476562 243.992188 116.304688 224.820312 116.304688 201.25 C 116.304688 166.726562 155.332031 146.496094 183.476562 166.203125 L 169.5625 180.117188 C 153.34375 172.035156 135.363281 184.160156 135.363281 201.25 Z M 207.792969 141.890625 L 194.199219 155.492188 C 156.429688 126.359375 101.289062 153.429688 101.289062 201.25 C 101.289062 233.089844 127.207031 259.007812 159.046875 259.007812 C 206.921875 259.007812 233.90625 203.824219 204.816406 166.097656 L 218.410156 152.507812 C 259.214844 202.011719 224.125 278.054688 159.046875 278.054688 C 116.691406 278.054688 82.234375 243.605469 82.234375 201.25 C 82.234375 136.265625 158.179688 101 207.792969 141.890625 Z M 159.046875 293.070312 C 237.203125 293.070312 279.453125 201.144531 229.027344 141.890625 L 271.089844 99.828125 L 270.960938 99.699219 L 314.1875 89.011719 L 352.960938 50.234375 L 310.070312 50.234375 L 310.0625 7.335938 L 271.289062 46.109375 L 260.597656 89.335938 L 260.472656 89.210938 L 218.410156 131.28125 C 159.144531 80.832031 67.226562 123.09375 67.226562 201.25 C 67.226562 251.875 108.421875 293.070312 159.046875 293.070312 " fill-opacity="1" fill-rule="nonzero"/></g><g fill="#1b1b1d" fill-opacity="1"><g transform="translate(67.035758, 92.800112)"><g><path d="M 8.492188 0 C 8.308594 -3.71875 8.246094 -15.871094 8.492188 -21.386719 L 12.585938 -21.386719 C 13.949219 -21.386719 15.375 -21.078125 16.117188 -20.890625 C 16.117188 -21.636719 16.117188 -23.0625 16.117188 -24.300781 L 16.117188 -27.710938 C 15.375 -27.464844 13.949219 -27.152344 12.585938 -27.152344 L 8.492188 -27.152344 C 8.492188 -28.578125 8.371094 -28.953125 8.371094 -35.027344 C 8.371094 -39.367188 8.429688 -42.589844 8.492188 -43.832031 L 19.960938 -43.832031 C 21.386719 -43.832031 22.8125 -43.519531 23.558594 -43.273438 C 23.558594 -44.015625 23.558594 -45.441406 23.558594 -46.683594 L 23.558594 -50.09375 C 22.8125 -49.90625 21.386719 -49.597656 19.960938 -49.597656 L 8.988281 -49.597656 C 8.246094 -49.597656 6.820312 -49.597656 5.578125 -49.597656 L 2.167969 -49.597656 C 2.417969 -48.914062 2.726562 -47.488281 2.726562 -46.0625 C 2.726562 -45.875 2.789062 -40.855469 2.789062 -27.960938 C 2.789062 -9.980469 2.726562 -3.96875 2.726562 -3.472656 C 2.726562 -2.230469 2.605469 -0.683594 2.355469 0 Z M 8.492188 0 "/></g></g></g><g fill="#1b1b1d" fill-opacity="1"><g transform="translate(96.60652, 92.800112)"><g><path d="M 23.929688 -46.0625 C 23.929688 -47.425781 24.300781 -48.851562 24.613281 -49.597656 C 23.867188 -49.597656 22.441406 -49.597656 21.203125 -49.597656 L 17.667969 -49.597656 C 17.917969 -48.914062 18.289062 -47.488281 18.289062 -46.0625 C 18.414062 -30.996094 18.535156 -10.726562 18.535156 -10.042969 C 18.535156 -8.617188 17.542969 -5.023438 12.832031 -4.835938 C 8.058594 -5.023438 7.128906 -8.617188 7.128906 -10.042969 C 7.128906 -10.726562 7.253906 -30.996094 7.378906 -46.0625 C 7.378906 -47.425781 7.6875 -48.851562 7.933594 -49.597656 C 7.191406 -49.597656 5.703125 -49.597656 4.464844 -49.597656 L 1.054688 -49.597656 C 1.300781 -48.914062 1.675781 -47.488281 1.675781 -46.0625 L 1.675781 -10.042969 C 1.675781 -7.191406 2.726562 -1.984375 8.429688 -0.1875 C 8.554688 -0.125 8.742188 -0.0625 8.867188 -0.0625 C 8.925781 -0.0625 8.925781 0 8.988281 0 C 10.042969 0.308594 11.28125 0.433594 12.707031 0.433594 L 12.894531 0.433594 C 14.320312 0.433594 15.5625 0.308594 16.675781 0 C 16.675781 0 16.738281 -0.0625 16.800781 -0.0625 C 16.925781 -0.0625 17.046875 -0.125 17.234375 -0.1875 C 22.875 -1.984375 23.992188 -7.191406 23.992188 -10.042969 Z M 23.929688 -46.0625 "/></g></g></g><g fill="#1b1b1d" fill-opacity="1"><g transform="translate(127.231156, 92.800112)"><g><path d="M 20.023438 -49.597656 C 19.21875 -49.597656 17.484375 -49.597656 15.683594 -49.597656 L 4.527344 -49.597656 C 3.285156 -49.597656 1.734375 -49.65625 1.054688 -49.90625 C 1.054688 -49.285156 1.054688 -47.984375 1.054688 -46.683594 L 1.054688 -43.519531 C 1.734375 -43.769531 3.285156 -43.769531 4.527344 -43.832031 C 5.023438 -43.832031 6.820312 -43.953125 9.546875 -43.832031 C 9.609375 -41.226562 9.734375 -35.894531 9.734375 -25.664062 C 9.734375 -6.695312 9.421875 -3.96875 9.421875 -3.472656 C 9.421875 -2.292969 9.359375 -0.621094 9.113281 0.0625 C 9.734375 0.0625 11.035156 0.0625 12.335938 0.0625 L 15.5 0.0625 C 15.25 -0.621094 15.1875 -2.292969 15.1875 -3.472656 C 15.1875 -3.71875 14.941406 -14.941406 14.941406 -25.664062 C 14.941406 -35.710938 15.066406 -41.164062 15.125 -43.832031 C 17.792969 -43.953125 18.785156 -43.890625 20.023438 -43.832031 C 21.449219 -43.769531 22.875 -43.644531 23.558594 -43.519531 C 23.558594 -44.140625 23.558594 -45.441406 23.558594 -46.683594 L 23.558594 -49.84375 C 22.875 -49.71875 21.449219 -49.597656 20.023438 -49.597656 Z M 20.023438 -49.597656 "/></g></g></g><g fill="#1b1b1d" fill-opacity="1"><g transform="translate(156.801915, 92.800112)"><g><path d="M 23.929688 -46.0625 C 23.929688 -47.425781 24.300781 -48.851562 24.613281 -49.597656 C 23.867188 -49.597656 22.441406 -49.597656 21.203125 -49.597656 L 17.667969 -49.597656 C 17.917969 -48.914062 18.289062 -47.488281 18.289062 -46.0625 C 18.414062 -30.996094 18.535156 -10.726562 18.535156 -10.042969 C 18.535156 -8.617188 17.542969 -5.023438 12.832031 -4.835938 C 8.058594 -5.023438 7.128906 -8.617188 7.128906 -10.042969 C 7.128906 -10.726562 7.253906 -30.996094 7.378906 -46.0625 C 7.378906 -47.425781 7.6875 -48.851562 7.933594 -49.597656 C 7.191406 -49.597656 5.703125 -49.597656 4.464844 -49.597656 L 1.054688 -49.597656 C 1.300781 -48.914062 1.675781 -47.488281 1.675781 -46.0625 L 1.675781 -10.042969 C 1.675781 -7.191406 2.726562 -1.984375 8.429688 -0.1875 C 8.554688 -0.125 8.742188 -0.0625 8.867188 -0.0625 C 8.925781 -0.0625 8.925781 0 8.988281 0 C 10.042969 0.308594 11.28125 0.433594 12.707031 0.433594 L 12.894531 0.433594 C 14.320312 0.433594 15.5625 0.308594 16.675781 0 C 16.675781 0 16.738281 -0.0625 16.800781 -0.0625 C 16.925781 -0.0625 17.046875 -0.125 17.234375 -0.1875 C 22.875 -1.984375 23.992188 -7.191406 23.992188 -10.042969 Z M 23.929688 -46.0625 "/></g></g></g><g fill="#1b1b1d" fill-opacity="1"><g transform="translate(187.426554, 92.800112)"><g><path d="M 28.207031 0 C 27.773438 -0.246094 27.585938 -0.496094 27.585938 -0.804688 C 25.664062 -10.664062 24.179688 -14.628906 20.644531 -20.085938 C 23.804688 -22.257812 26.71875 -26.597656 26.71875 -34.777344 C 26.71875 -48.851562 17.234375 -50.09375 13.019531 -50.09375 C 9.300781 -50.09375 3.535156 -49.84375 2.230469 -49.222656 C 2.480469 -48.667969 2.542969 -48.109375 2.542969 -47.613281 C 2.726562 -44.699219 2.976562 -36.265625 2.976562 -23.992188 C 2.976562 -8.742188 2.542969 -4.03125 2.542969 -3.472656 C 2.480469 -2.230469 2.417969 -0.683594 2.167969 0 L 8.804688 0 C 8.617188 -0.683594 8.371094 -2.109375 8.308594 -3.535156 C 8.183594 -7.253906 8.121094 -17.484375 8.308594 -18.785156 C 9.359375 -18.414062 12.027344 -17.980469 14.570312 -17.980469 L 15.066406 -17.980469 C 18.96875 -12.585938 21.328125 -5.828125 21.328125 -0.683594 C 21.328125 -0.558594 21.265625 -0.246094 21.015625 0 Z M 8.121094 -34.035156 C 8.121094 -39.988281 8.246094 -43.023438 8.308594 -43.644531 C 8.988281 -44.140625 11.46875 -44.265625 12.832031 -44.265625 C 15.125 -44.265625 20.769531 -44.449219 20.769531 -34.71875 C 20.769531 -24.984375 16.429688 -23.558594 13.949219 -23.558594 C 11.902344 -23.558594 9.609375 -23.867188 8.308594 -24.550781 C 8.246094 -25.292969 8.121094 -28.394531 8.121094 -34.035156 Z M 8.121094 -34.035156 "/></g></g></g><g fill="#1b1b1d" fill-opacity="1"><g transform="translate(221.646732, 92.800112)"><g><path d="M 18.101562 -5.828125 L 8.492188 -5.828125 C 8.308594 -9.484375 8.246094 -16.242188 8.492188 -21.761719 L 12.585938 -21.761719 C 13.949219 -21.761719 15.375 -21.449219 16.117188 -21.265625 C 16.117188 -22.007812 16.117188 -23.433594 16.117188 -24.675781 L 16.117188 -28.082031 C 15.375 -27.835938 13.949219 -27.527344 12.585938 -27.527344 L 8.492188 -27.527344 C 8.492188 -28.953125 8.371094 -29.011719 8.371094 -35.089844 C 8.371094 -39.367188 8.429688 -42.589844 8.492188 -43.832031 L 18.039062 -43.832031 C 19.464844 -43.832031 20.890625 -43.519531 21.574219 -43.273438 C 21.574219 -44.015625 21.574219 -45.441406 21.574219 -46.683594 L 21.574219 -50.09375 C 20.890625 -49.90625 19.464844 -49.597656 18.039062 -49.597656 L 8.988281 -49.597656 C 8.246094 -49.597656 6.820312 -49.597656 5.578125 -49.597656 L 2.167969 -49.597656 C 2.417969 -48.914062 2.726562 -47.488281 2.726562 -46.0625 C 2.726562 -43.953125 2.789062 -37.753906 2.789062 -28.332031 C 2.789062 -10.351562 2.726562 -4.03125 2.726562 -3.472656 C 2.726562 -2.292969 2.605469 -0.683594 2.355469 0 L 2.542969 0 C 2.726562 0 3.039062 0 3.472656 0 L 18.101562 0 C 19.527344 0 20.953125 0.308594 21.699219 0.496094 C 21.699219 -0.246094 21.699219 -1.675781 21.699219 -2.914062 L 21.699219 -6.324219 C 20.953125 -6.136719 19.527344 -5.828125 18.101562 -5.828125 Z M 18.101562 -5.828125 "/></g></g></g><g fill="#1b1b1d" fill-opacity="1"><g transform="translate(249.356062, 92.800112)"><g/></g></g><g fill="#1b1b1d" fill-opacity="1"><g transform="translate(60.249676, 319.590653)"><g><path d="M 5.253906 -1.691406 L 2.464844 -1.691406 C 2.410156 -2.753906 2.394531 -4.714844 2.464844 -6.316406 L 3.652344 -6.316406 C 4.046875 -6.316406 4.460938 -6.226562 4.679688 -6.171875 C 4.679688 -6.386719 4.679688 -6.800781 4.679688 -7.160156 L 4.679688 -8.152344 C 4.460938 -8.078125 4.046875 -7.988281 3.652344 -7.988281 L 2.464844 -7.988281 C 2.464844 -8.402344 2.429688 -8.421875 2.429688 -10.183594 C 2.429688 -11.425781 2.445312 -12.359375 2.464844 -12.71875 L 5.234375 -12.71875 C 5.648438 -12.71875 6.0625 -12.628906 6.261719 -12.558594 C 6.261719 -12.773438 6.261719 -13.1875 6.261719 -13.546875 L 6.261719 -14.539062 C 6.0625 -14.484375 5.648438 -14.394531 5.234375 -14.394531 L 2.609375 -14.394531 C 2.394531 -14.394531 1.980469 -14.394531 1.621094 -14.394531 L 0.628906 -14.394531 C 0.703125 -14.195312 0.792969 -13.78125 0.792969 -13.367188 C 0.792969 -12.757812 0.808594 -10.957031 0.808594 -8.222656 C 0.808594 -3.003906 0.792969 -1.167969 0.792969 -1.007812 C 0.792969 -0.664062 0.753906 -0.199219 0.683594 0 L 0.738281 0 C 0.792969 0 0.882812 0 1.007812 0 L 5.253906 0 C 5.667969 0 6.082031 0.0898438 6.296875 0.144531 C 6.296875 -0.0703125 6.296875 -0.484375 6.296875 -0.84375 L 6.296875 -1.835938 C 6.082031 -1.78125 5.667969 -1.691406 5.253906 -1.691406 Z M 5.253906 -1.691406 "/></g></g></g><g fill="#1b1b1d" fill-opacity="1"><g transform="translate(68.669377, 319.590653)"><g><path d="M 6.746094 -0.125 C 5.902344 -2.375 5.074219 -4.714844 4.300781 -7.015625 C 5.234375 -10.113281 5.6875 -11.351562 6.691406 -14.089844 C 6.710938 -14.140625 6.746094 -14.269531 6.855469 -14.394531 L 5.144531 -14.394531 C 5.183594 -14.285156 5.128906 -14.140625 5.128906 -14.125 C 4.730469 -12.738281 4.121094 -11.011719 3.527344 -9.320312 C 2.988281 -10.992188 2.484375 -12.628906 2.03125 -14.140625 C 2.015625 -14.179688 1.980469 -14.320312 2.03125 -14.394531 L 0.304688 -14.394531 C 0.414062 -14.320312 0.46875 -14.125 0.484375 -14.070312 C 1.367188 -11.765625 2.214844 -9.445312 2.96875 -7.179688 C 2.304688 -5.039062 1.0625 -1.242188 0.738281 -0.46875 C 0.71875 -0.414062 0.628906 -0.125 0.503906 0 L 2.230469 0 C 2.230469 -0.0351562 2.195312 -0.0898438 2.285156 -0.378906 C 2.519531 -1.207031 3.21875 -3.328125 3.742188 -4.839844 C 4.226562 -3.292969 4.695312 -1.78125 5.109375 -0.34375 C 5.109375 -0.304688 5.164062 -0.109375 5.144531 0 L 6.820312 0 C 6.800781 0 6.765625 -0.0898438 6.746094 -0.125 Z M 6.746094 -0.125 "/></g></g></g><g fill="#1b1b1d" fill-opacity="1"><g transform="translate(77.646714, 319.590653)"><g><path d="M 3.90625 -14.449219 C 2.394531 -14.539062 1.007812 -14.339844 0.628906 -14.160156 C 0.703125 -13.980469 0.71875 -13.816406 0.71875 -13.675781 C 0.773438 -12.738281 0.84375 -10.183594 0.84375 -6.621094 C 0.84375 -2.195312 0.71875 -1.167969 0.71875 -1.007812 C 0.71875 -0.648438 0.703125 -0.199219 0.628906 0 L 2.554688 0 C 2.5 -0.199219 2.410156 -0.613281 2.394531 -1.027344 C 2.355469 -2.105469 2.339844 -4.730469 2.394531 -5.109375 C 2.71875 -5.019531 3.472656 -4.875 4.210938 -4.875 C 5.21875 -4.875 7.738281 -5.6875 7.738281 -9.75 C 7.738281 -13.835938 5.144531 -14.394531 3.90625 -14.449219 Z M 4.03125 -6.511719 C 3.4375 -6.511719 2.769531 -6.585938 2.394531 -6.78125 C 2.375 -7 2.355469 -7.898438 2.355469 -9.535156 C 2.355469 -11.261719 2.375 -12.414062 2.394531 -12.792969 C 2.71875 -12.953125 3.167969 -13.007812 3.832031 -12.972656 C 4.246094 -12.9375 6.007812 -12.558594 6.007812 -9.734375 C 6.007812 -6.910156 4.75 -6.511719 4.03125 -6.511719 Z M 4.03125 -6.511719 "/></g></g></g><g fill="#1b1b1d" fill-opacity="1"><g transform="translate(87.505475, 319.590653)"><g><path d="M 5 -1.511719 C 4.820312 -1.492188 3.996094 -1.457031 2.445312 -1.476562 C 2.429688 -2.5 2.375 -5.019531 2.375 -7.449219 C 2.375 -10.867188 2.429688 -12.828125 2.464844 -13.367188 C 2.464844 -13.78125 2.554688 -14.195312 2.609375 -14.394531 C 2.394531 -14.394531 1.980469 -14.394531 1.621094 -14.394531 L 0.628906 -14.394531 C 0.703125 -14.195312 0.792969 -13.78125 0.792969 -13.367188 C 0.828125 -12.917969 0.882812 -11.011719 0.882812 -7.449219 C 0.882812 -1.941406 0.792969 -1.152344 0.792969 -1.007812 C 0.792969 -0.648438 0.753906 -0.199219 0.683594 0 C 0.863281 0 1.242188 0 1.621094 0 L 5.902344 0 C 5.902344 -0.109375 5.902344 -0.414062 5.902344 -0.773438 L 5.902344 -1.636719 C 5.757812 -1.582031 5.414062 -1.511719 5 -1.511719 Z M 5 -1.511719 "/></g></g></g><g fill="#1b1b1d" fill-opacity="1"><g transform="translate(95.529428, 319.590653)"><g><path d="M 3.941406 0.0703125 C 6.371094 0.0703125 7.574219 -1.816406 7.574219 -7.195312 C 7.574219 -12.578125 6.371094 -14.464844 3.941406 -14.464844 C 1.511719 -14.464844 0.304688 -12.578125 0.304688 -7.195312 C 0.304688 -1.816406 1.511719 0.0703125 3.941406 0.0703125 Z M 3.941406 -1.402344 C 2.320312 -1.402344 1.78125 -3.5625 1.78125 -7.195312 C 1.78125 -10.832031 2.320312 -12.992188 3.941406 -12.992188 C 5.558594 -12.992188 6.097656 -10.832031 6.097656 -7.195312 C 6.097656 -3.5625 5.558594 -1.402344 3.941406 -1.402344 Z M 3.941406 -1.402344 "/></g></g></g><g fill="#1b1b1d" fill-opacity="1"><g transform="translate(105.22629, 319.590653)"><g><path d="M 8.1875 0 C 8.0625 -0.0703125 8.007812 -0.144531 8.007812 -0.234375 C 7.449219 -3.09375 7.015625 -4.246094 5.992188 -5.828125 C 6.910156 -6.460938 7.753906 -7.71875 7.753906 -10.09375 C 7.753906 -14.179688 5 -14.539062 3.777344 -14.539062 C 2.699219 -14.539062 1.027344 -14.464844 0.648438 -14.285156 C 0.71875 -14.125 0.738281 -13.960938 0.738281 -13.816406 C 0.792969 -12.972656 0.863281 -10.527344 0.863281 -6.964844 C 0.863281 -2.535156 0.738281 -1.167969 0.738281 -1.007812 C 0.71875 -0.648438 0.703125 -0.199219 0.628906 0 L 2.554688 0 C 2.5 -0.199219 2.429688 -0.613281 2.410156 -1.027344 C 2.375 -2.105469 2.355469 -5.074219 2.410156 -5.453125 C 2.71875 -5.34375 3.492188 -5.21875 4.226562 -5.21875 L 4.371094 -5.21875 C 5.503906 -3.652344 6.1875 -1.691406 6.1875 -0.199219 C 6.1875 -0.160156 6.171875 -0.0703125 6.097656 0 Z M 2.355469 -9.878906 C 2.355469 -11.605469 2.394531 -12.488281 2.410156 -12.667969 C 2.609375 -12.8125 3.328125 -12.847656 3.722656 -12.847656 C 4.390625 -12.847656 6.027344 -12.902344 6.027344 -10.074219 C 6.027344 -7.25 4.769531 -6.835938 4.046875 -6.835938 C 3.453125 -6.835938 2.789062 -6.925781 2.410156 -7.125 C 2.394531 -7.339844 2.355469 -8.242188 2.355469 -9.878906 Z M 2.355469 -9.878906 "/></g></g></g><g fill="#1b1b1d" fill-opacity="1"><g transform="translate(115.534758, 319.590653)"><g><path d="M 5.253906 -1.691406 L 2.464844 -1.691406 C 2.410156 -2.753906 2.394531 -4.714844 2.464844 -6.316406 L 3.652344 -6.316406 C 4.046875 -6.316406 4.460938 -6.226562 4.679688 -6.171875 C 4.679688 -6.386719 4.679688 -6.800781 4.679688 -7.160156 L 4.679688 -8.152344 C 4.460938 -8.078125 4.046875 -7.988281 3.652344 -7.988281 L 2.464844 -7.988281 C 2.464844 -8.402344 2.429688 -8.421875 2.429688 -10.183594 C 2.429688 -11.425781 2.445312 -12.359375 2.464844 -12.71875 L 5.234375 -12.71875 C 5.648438 -12.71875 6.0625 -12.628906 6.261719 -12.558594 C 6.261719 -12.773438 6.261719 -13.1875 6.261719 -13.546875 L 6.261719 -14.539062 C 6.0625 -14.484375 5.648438 -14.394531 5.234375 -14.394531 L 2.609375 -14.394531 C 2.394531 -14.394531 1.980469 -14.394531 1.621094 -14.394531 L 0.628906 -14.394531 C 0.703125 -14.195312 0.792969 -13.78125 0.792969 -13.367188 C 0.792969 -12.757812 0.808594 -10.957031 0.808594 -8.222656 C 0.808594 -3.003906 0.792969 -1.167969 0.792969 -1.007812 C 0.792969 -0.664062 0.753906 -0.199219 0.683594 0 L 0.738281 0 C 0.792969 0 0.882812 0 1.007812 0 L 5.253906 0 C 5.667969 0 6.082031 0.0898438 6.296875 0.144531 C 6.296875 -0.0703125 6.296875 -0.484375 6.296875 -0.84375 L 6.296875 -1.835938 C 6.082031 -1.78125 5.667969 -1.691406 5.253906 -1.691406 Z M 5.253906 -1.691406 "/></g></g></g><g fill="#1b1b1d" fill-opacity="1"><g transform="translate(123.954456, 319.590653)"><g/></g></g><g fill="#1b1b1d" fill-opacity="1"><g transform="translate(129.567977, 319.590653)"><g><path d="M 2.464844 0 C 2.410156 -1.078125 2.394531 -4.605469 2.464844 -6.207031 L 3.652344 -6.207031 C 4.046875 -6.207031 4.460938 -6.117188 4.679688 -6.0625 C 4.679688 -6.28125 4.679688 -6.691406 4.679688 -7.054688 L 4.679688 -8.042969 C 4.460938 -7.96875 4.046875 -7.878906 3.652344 -7.878906 L 2.464844 -7.878906 C 2.464844 -8.292969 2.429688 -8.402344 2.429688 -10.164062 C 2.429688 -11.425781 2.445312 -12.359375 2.464844 -12.71875 L 5.792969 -12.71875 C 6.207031 -12.71875 6.621094 -12.628906 6.835938 -12.558594 C 6.835938 -12.773438 6.835938 -13.1875 6.835938 -13.546875 L 6.835938 -14.539062 C 6.621094 -14.484375 6.207031 -14.394531 5.792969 -14.394531 L 2.609375 -14.394531 C 2.394531 -14.394531 1.980469 -14.394531 1.621094 -14.394531 L 0.628906 -14.394531 C 0.703125 -14.195312 0.792969 -13.78125 0.792969 -13.367188 C 0.792969 -13.3125 0.808594 -11.855469 0.808594 -8.113281 C 0.808594 -2.898438 0.792969 -1.152344 0.792969 -1.007812 C 0.792969 -0.648438 0.753906 -0.199219 0.683594 0 Z M 2.464844 0 "/></g></g></g><g fill="#1b1b1d" fill-opacity="1"><g transform="translate(138.527327, 319.590653)"><g><path d="M 6.945312 -13.367188 C 6.945312 -13.765625 7.054688 -14.179688 7.144531 -14.394531 C 6.925781 -14.394531 6.511719 -14.394531 6.152344 -14.394531 L 5.128906 -14.394531 C 5.199219 -14.195312 5.308594 -13.78125 5.308594 -13.367188 C 5.34375 -8.996094 5.378906 -3.113281 5.378906 -2.914062 C 5.378906 -2.5 5.09375 -1.457031 3.722656 -1.402344 C 2.339844 -1.457031 2.070312 -2.5 2.070312 -2.914062 C 2.070312 -3.113281 2.105469 -8.996094 2.140625 -13.367188 C 2.140625 -13.765625 2.230469 -14.179688 2.304688 -14.394531 C 2.085938 -14.394531 1.65625 -14.394531 1.296875 -14.394531 L 0.304688 -14.394531 C 0.378906 -14.195312 0.484375 -13.78125 0.484375 -13.367188 L 0.484375 -2.914062 C 0.484375 -2.085938 0.792969 -0.574219 2.445312 -0.0546875 C 2.484375 -0.0351562 2.535156 -0.0195312 2.574219 -0.0195312 C 2.589844 -0.0195312 2.589844 0 2.609375 0 C 2.914062 0.0898438 3.273438 0.125 3.6875 0.125 L 3.742188 0.125 C 4.15625 0.125 4.515625 0.0898438 4.839844 0 C 4.839844 0 4.859375 -0.0195312 4.875 -0.0195312 C 4.910156 -0.0195312 4.949219 -0.0351562 5 -0.0546875 C 6.640625 -0.574219 6.964844 -2.085938 6.964844 -2.914062 Z M 6.945312 -13.367188 "/></g></g></g><g fill="#1b1b1d" fill-opacity="1"><g transform="translate(147.792475, 319.590653)"><g><path d="M 5.8125 -14.394531 C 5.578125 -14.394531 5.074219 -14.394531 4.550781 -14.394531 L 1.3125 -14.394531 C 0.953125 -14.394531 0.503906 -14.410156 0.304688 -14.484375 C 0.304688 -14.304688 0.304688 -13.925781 0.304688 -13.546875 L 0.304688 -12.628906 C 0.503906 -12.703125 0.953125 -12.703125 1.3125 -12.71875 C 1.457031 -12.71875 1.980469 -12.757812 2.769531 -12.71875 C 2.789062 -11.964844 2.824219 -10.417969 2.824219 -7.449219 C 2.824219 -1.941406 2.734375 -1.152344 2.734375 -1.007812 C 2.734375 -0.664062 2.71875 -0.179688 2.644531 0.0195312 C 2.824219 0.0195312 3.203125 0.0195312 3.582031 0.0195312 L 4.5 0.0195312 C 4.425781 -0.179688 4.40625 -0.664062 4.40625 -1.007812 C 4.40625 -1.078125 4.335938 -4.335938 4.335938 -7.449219 C 4.335938 -10.363281 4.371094 -11.945312 4.390625 -12.71875 C 5.164062 -12.757812 5.453125 -12.738281 5.8125 -12.71875 C 6.226562 -12.703125 6.640625 -12.667969 6.835938 -12.628906 C 6.835938 -12.8125 6.835938 -13.1875 6.835938 -13.546875 L 6.835938 -14.464844 C 6.640625 -14.429688 6.226562 -14.394531 5.8125 -14.394531 Z M 5.8125 -14.394531 "/></g></g></g><g fill="#1b1b1d" fill-opacity="1"><g transform="translate(156.751825, 319.590653)"><g><path d="M 6.945312 -13.367188 C 6.945312 -13.765625 7.054688 -14.179688 7.144531 -14.394531 C 6.925781 -14.394531 6.511719 -14.394531 6.152344 -14.394531 L 5.128906 -14.394531 C 5.199219 -14.195312 5.308594 -13.78125 5.308594 -13.367188 C 5.34375 -8.996094 5.378906 -3.113281 5.378906 -2.914062 C 5.378906 -2.5 5.09375 -1.457031 3.722656 -1.402344 C 2.339844 -1.457031 2.070312 -2.5 2.070312 -2.914062 C 2.070312 -3.113281 2.105469 -8.996094 2.140625 -13.367188 C 2.140625 -13.765625 2.230469 -14.179688 2.304688 -14.394531 C 2.085938 -14.394531 1.65625 -14.394531 1.296875 -14.394531 L 0.304688 -14.394531 C 0.378906 -14.195312 0.484375 -13.78125 0.484375 -13.367188 L 0.484375 -2.914062 C 0.484375 -2.085938 0.792969 -0.574219 2.445312 -0.0546875 C 2.484375 -0.0351562 2.535156 -0.0195312 2.574219 -0.0195312 C 2.589844 -0.0195312 2.589844 0 2.609375 0 C 2.914062 0.0898438 3.273438 0.125 3.6875 0.125 L 3.742188 0.125 C 4.15625 0.125 4.515625 0.0898438 4.839844 0 C 4.839844 0 4.859375 -0.0195312 4.875 -0.0195312 C 4.910156 -0.0195312 4.949219 -0.0351562 5 -0.0546875 C 6.640625 -0.574219 6.964844 -2.085938 6.964844 -2.914062 Z M 6.945312 -13.367188 "/></g></g></g><g fill="#1b1b1d" fill-opacity="1"><g transform="translate(166.016972, 319.590653)"><g><path d="M 8.1875 0 C 8.0625 -0.0703125 8.007812 -0.144531 8.007812 -0.234375 C 7.449219 -3.09375 7.015625 -4.246094 5.992188 -5.828125 C 6.910156 -6.460938 7.753906 -7.71875 7.753906 -10.09375 C 7.753906 -14.179688 5 -14.539062 3.777344 -14.539062 C 2.699219 -14.539062 1.027344 -14.464844 0.648438 -14.285156 C 0.71875 -14.125 0.738281 -13.960938 0.738281 -13.816406 C 0.792969 -12.972656 0.863281 -10.527344 0.863281 -6.964844 C 0.863281 -2.535156 0.738281 -1.167969 0.738281 -1.007812 C 0.71875 -0.648438 0.703125 -0.199219 0.628906 0 L 2.554688 0 C 2.5 -0.199219 2.429688 -0.613281 2.410156 -1.027344 C 2.375 -2.105469 2.355469 -5.074219 2.410156 -5.453125 C 2.71875 -5.34375 3.492188 -5.21875 4.226562 -5.21875 L 4.371094 -5.21875 C 5.503906 -3.652344 6.1875 -1.691406 6.1875 -0.199219 C 6.1875 -0.160156 6.171875 -0.0703125 6.097656 0 Z M 2.355469 -9.878906 C 2.355469 -11.605469 2.394531 -12.488281 2.410156 -12.667969 C 2.609375 -12.8125 3.328125 -12.847656 3.722656 -12.847656 C 4.390625 -12.847656 6.027344 -12.902344 6.027344 -10.074219 C 6.027344 -7.25 4.769531 -6.835938 4.046875 -6.835938 C 3.453125 -6.835938 2.789062 -6.925781 2.410156 -7.125 C 2.394531 -7.339844 2.355469 -8.242188 2.355469 -9.878906 Z M 2.355469 -9.878906 "/></g></g></g><g fill="#1b1b1d" fill-opacity="1"><g transform="translate(176.325443, 319.590653)"><g><path d="M 5.253906 -1.691406 L 2.464844 -1.691406 C 2.410156 -2.753906 2.394531 -4.714844 2.464844 -6.316406 L 3.652344 -6.316406 C 4.046875 -6.316406 4.460938 -6.226562 4.679688 -6.171875 C 4.679688 -6.386719 4.679688 -6.800781 4.679688 -7.160156 L 4.679688 -8.152344 C 4.460938 -8.078125 4.046875 -7.988281 3.652344 -7.988281 L 2.464844 -7.988281 C 2.464844 -8.402344 2.429688 -8.421875 2.429688 -10.183594 C 2.429688 -11.425781 2.445312 -12.359375 2.464844 -12.71875 L 5.234375 -12.71875 C 5.648438 -12.71875 6.0625 -12.628906 6.261719 -12.558594 C 6.261719 -12.773438 6.261719 -13.1875 6.261719 -13.546875 L 6.261719 -14.539062 C 6.0625 -14.484375 5.648438 -14.394531 5.234375 -14.394531 L 2.609375 -14.394531 C 2.394531 -14.394531 1.980469 -14.394531 1.621094 -14.394531 L 0.628906 -14.394531 C 0.703125 -14.195312 0.792969 -13.78125 0.792969 -13.367188 C 0.792969 -12.757812 0.808594 -10.957031 0.808594 -8.222656 C 0.808594 -3.003906 0.792969 -1.167969 0.792969 -1.007812 C 0.792969 -0.664062 0.753906 -0.199219 0.683594 0 L 0.738281 0 C 0.792969 0 0.882812 0 1.007812 0 L 5.253906 0 C 5.667969 0 6.082031 0.0898438 6.296875 0.144531 C 6.296875 -0.0703125 6.296875 -0.484375 6.296875 -0.84375 L 6.296875 -1.835938 C 6.082031 -1.78125 5.667969 -1.691406 5.253906 -1.691406 Z M 5.253906 -1.691406 "/></g></g></g><g fill="#1b1b1d" fill-opacity="1"><g transform="translate(184.745147, 319.590653)"><g/></g></g><g fill="#1b1b1d" fill-opacity="1"><g transform="translate(190.358668, 319.590653)"><g><path d="M 5.109375 -3.453125 C 4.894531 -2.175781 4.460938 -1.476562 3.542969 -1.476562 C 1.925781 -1.476562 1.78125 -3.632812 1.78125 -7.269531 C 1.78125 -10.902344 1.925781 -12.917969 3.542969 -12.917969 C 4.480469 -12.917969 4.910156 -12.234375 5.109375 -10.9375 L 6.566406 -10.9375 C 6.1875 -13.476562 5.289062 -14.394531 3.542969 -14.394531 C 1.117188 -14.394531 0.304688 -12.648438 0.304688 -7.269531 C 0.304688 -1.871094 1.117188 0 3.542969 0 C 5.273438 0 6.171875 -0.953125 6.550781 -3.453125 Z M 5.109375 -3.453125 "/></g></g></g><g fill="#1b1b1d" fill-opacity="1"><g transform="translate(199.04819, 319.590653)"><g><path d="M 7.035156 0 C 6.964844 -0.0703125 6.925781 -0.199219 6.925781 -0.269531 C 5.957031 -4.570312 5.09375 -9.5 4.515625 -13.890625 C 4.5 -14.050781 4.445312 -14.285156 4.535156 -14.394531 L 4.5 -14.394531 C 3.996094 -14.394531 3.039062 -14.394531 2.84375 -14.394531 L 2.808594 -14.394531 C 2.898438 -14.285156 2.84375 -14.050781 2.824219 -13.890625 C 2.25 -9.5 1.386719 -4.570312 0.414062 -0.269531 C 0.394531 -0.199219 0.378906 -0.0703125 0.304688 0 L 2.015625 0 C 1.960938 -0.125 1.996094 -0.34375 2.015625 -0.449219 C 2.214844 -1.691406 2.484375 -3.453125 2.824219 -5.488281 C 3.328125 -5.453125 3.90625 -5.433594 4.515625 -5.488281 C 4.859375 -3.453125 5.128906 -1.691406 5.308594 -0.449219 C 5.324219 -0.34375 5.363281 -0.125 5.324219 0 Z M 3.078125 -6.980469 C 3.257812 -8.023438 3.453125 -9.105469 3.671875 -10.238281 C 3.886719 -9.121094 4.066406 -8.023438 4.246094 -7 C 3.867188 -6.945312 3.472656 -6.945312 3.078125 -6.980469 Z M 3.078125 -6.980469 "/></g></g></g><g fill="#1b1b1d" fill-opacity="1"><g transform="translate(208.205408, 319.590653)"><g><path d="M 8.1875 0 C 8.0625 -0.0703125 8.007812 -0.144531 8.007812 -0.234375 C 7.449219 -3.09375 7.015625 -4.246094 5.992188 -5.828125 C 6.910156 -6.460938 7.753906 -7.71875 7.753906 -10.09375 C 7.753906 -14.179688 5 -14.539062 3.777344 -14.539062 C 2.699219 -14.539062 1.027344 -14.464844 0.648438 -14.285156 C 0.71875 -14.125 0.738281 -13.960938 0.738281 -13.816406 C 0.792969 -12.972656 0.863281 -10.527344 0.863281 -6.964844 C 0.863281 -2.535156 0.738281 -1.167969 0.738281 -1.007812 C 0.71875 -0.648438 0.703125 -0.199219 0.628906 0 L 2.554688 0 C 2.5 -0.199219 2.429688 -0.613281 2.410156 -1.027344 C 2.375 -2.105469 2.355469 -5.074219 2.410156 -5.453125 C 2.71875 -5.34375 3.492188 -5.21875 4.226562 -5.21875 L 4.371094 -5.21875 C 5.503906 -3.652344 6.1875 -1.691406 6.1875 -0.199219 C 6.1875 -0.160156 6.171875 -0.0703125 6.097656 0 Z M 2.355469 -9.878906 C 2.355469 -11.605469 2.394531 -12.488281 2.410156 -12.667969 C 2.609375 -12.8125 3.328125 -12.847656 3.722656 -12.847656 C 4.390625 -12.847656 6.027344 -12.902344 6.027344 -10.074219 C 6.027344 -7.25 4.769531 -6.835938 4.046875 -6.835938 C 3.453125 -6.835938 2.789062 -6.925781 2.410156 -7.125 C 2.394531 -7.339844 2.355469 -8.242188 2.355469 -9.878906 Z M 2.355469 -9.878906 "/></g></g></g><g fill="#1b1b1d" fill-opacity="1"><g transform="translate(218.513879, 319.590653)"><g><path d="M 5.253906 -1.691406 L 2.464844 -1.691406 C 2.410156 -2.753906 2.394531 -4.714844 2.464844 -6.316406 L 3.652344 -6.316406 C 4.046875 -6.316406 4.460938 -6.226562 4.679688 -6.171875 C 4.679688 -6.386719 4.679688 -6.800781 4.679688 -7.160156 L 4.679688 -8.152344 C 4.460938 -8.078125 4.046875 -7.988281 3.652344 -7.988281 L 2.464844 -7.988281 C 2.464844 -8.402344 2.429688 -8.421875 2.429688 -10.183594 C 2.429688 -11.425781 2.445312 -12.359375 2.464844 -12.71875 L 5.234375 -12.71875 C 5.648438 -12.71875 6.0625 -12.628906 6.261719 -12.558594 C 6.261719 -12.773438 6.261719 -13.1875 6.261719 -13.546875 L 6.261719 -14.539062 C 6.0625 -14.484375 5.648438 -14.394531 5.234375 -14.394531 L 2.609375 -14.394531 C 2.394531 -14.394531 1.980469 -14.394531 1.621094 -14.394531 L 0.628906 -14.394531 C 0.703125 -14.195312 0.792969 -13.78125 0.792969 -13.367188 C 0.792969 -12.757812 0.808594 -10.957031 0.808594 -8.222656 C 0.808594 -3.003906 0.792969 -1.167969 0.792969 -1.007812 C 0.792969 -0.664062 0.753906 -0.199219 0.683594 0 L 0.738281 0 C 0.792969 0 0.882812 0 1.007812 0 L 5.253906 0 C 5.667969 0 6.082031 0.0898438 6.296875 0.144531 C 6.296875 -0.0703125 6.296875 -0.484375 6.296875 -0.84375 L 6.296875 -1.835938 C 6.082031 -1.78125 5.667969 -1.691406 5.253906 -1.691406 Z M 5.253906 -1.691406 "/></g></g></g><g fill="#1b1b1d" fill-opacity="1"><g transform="translate(226.933583, 319.590653)"><g><path d="M 5.253906 -1.691406 L 2.464844 -1.691406 C 2.410156 -2.753906 2.394531 -4.714844 2.464844 -6.316406 L 3.652344 -6.316406 C 4.046875 -6.316406 4.460938 -6.226562 4.679688 -6.171875 C 4.679688 -6.386719 4.679688 -6.800781 4.679688 -7.160156 L 4.679688 -8.152344 C 4.460938 -8.078125 4.046875 -7.988281 3.652344 -7.988281 L 2.464844 -7.988281 C 2.464844 -8.402344 2.429688 -8.421875 2.429688 -10.183594 C 2.429688 -11.425781 2.445312 -12.359375 2.464844 -12.71875 L 5.234375 -12.71875 C 5.648438 -12.71875 6.0625 -12.628906 6.261719 -12.558594 C 6.261719 -12.773438 6.261719 -13.1875 6.261719 -13.546875 L 6.261719 -14.539062 C 6.0625 -14.484375 5.648438 -14.394531 5.234375 -14.394531 L 2.609375 -14.394531 C 2.394531 -14.394531 1.980469 -14.394531 1.621094 -14.394531 L 0.628906 -14.394531 C 0.703125 -14.195312 0.792969 -13.78125 0.792969 -13.367188 C 0.792969 -12.757812 0.808594 -10.957031 0.808594 -8.222656 C 0.808594 -3.003906 0.792969 -1.167969 0.792969 -1.007812 C 0.792969 -0.664062 0.753906 -0.199219 0.683594 0 L 0.738281 0 C 0.792969 0 0.882812 0 1.007812 0 L 5.253906 0 C 5.667969 0 6.082031 0.0898438 6.296875 0.144531 C 6.296875 -0.0703125 6.296875 -0.484375 6.296875 -0.84375 L 6.296875 -1.835938 C 6.082031 -1.78125 5.667969 -1.691406 5.253906 -1.691406 Z M 5.253906 -1.691406 "/></g></g></g><g fill="#1b1b1d" fill-opacity="1"><g transform="translate(235.353287, 319.590653)"><g><path d="M 8.1875 0 C 8.0625 -0.0703125 8.007812 -0.144531 8.007812 -0.234375 C 7.449219 -3.09375 7.015625 -4.246094 5.992188 -5.828125 C 6.910156 -6.460938 7.753906 -7.71875 7.753906 -10.09375 C 7.753906 -14.179688 5 -14.539062 3.777344 -14.539062 C 2.699219 -14.539062 1.027344 -14.464844 0.648438 -14.285156 C 0.71875 -14.125 0.738281 -13.960938 0.738281 -13.816406 C 0.792969 -12.972656 0.863281 -10.527344 0.863281 -6.964844 C 0.863281 -2.535156 0.738281 -1.167969 0.738281 -1.007812 C 0.71875 -0.648438 0.703125 -0.199219 0.628906 0 L 2.554688 0 C 2.5 -0.199219 2.429688 -0.613281 2.410156 -1.027344 C 2.375 -2.105469 2.355469 -5.074219 2.410156 -5.453125 C 2.71875 -5.34375 3.492188 -5.21875 4.226562 -5.21875 L 4.371094 -5.21875 C 5.503906 -3.652344 6.1875 -1.691406 6.1875 -0.199219 C 6.1875 -0.160156 6.171875 -0.0703125 6.097656 0 Z M 2.355469 -9.878906 C 2.355469 -11.605469 2.394531 -12.488281 2.410156 -12.667969 C 2.609375 -12.8125 3.328125 -12.847656 3.722656 -12.847656 C 4.390625 -12.847656 6.027344 -12.902344 6.027344 -10.074219 C 6.027344 -7.25 4.769531 -6.835938 4.046875 -6.835938 C 3.453125 -6.835938 2.789062 -6.925781 2.410156 -7.125 C 2.394531 -7.339844 2.355469 -8.242188 2.355469 -9.878906 Z M 2.355469 -9.878906 "/></g></g></g><g fill="#1b1b1d" fill-opacity="1"><g transform="translate(245.661758, 319.590653)"><g><path d="M 3.582031 0.144531 C 5.867188 0.144531 7.214844 -1.421875 7.214844 -4.066406 C 7.214844 -6.746094 4.769531 -8.277344 3.128906 -9.285156 C 2.140625 -9.894531 1.941406 -10.5625 1.941406 -11.371094 C 1.941406 -12.324219 2.625 -12.972656 3.652344 -12.972656 C 4.839844 -12.972656 5.363281 -12.523438 5.433594 -11.40625 L 7 -11.515625 C 6.875 -13.457031 5.6875 -14.539062 3.652344 -14.539062 C 1.761719 -14.539062 0.378906 -13.207031 0.378906 -11.371094 C 0.378906 -9.859375 0.988281 -8.78125 2.304688 -7.953125 C 4.066406 -6.855469 5.667969 -5.738281 5.667969 -4.066406 C 5.667969 -1.421875 4.085938 -1.421875 3.582031 -1.421875 C 2.070312 -1.421875 1.871094 -3.203125 1.851562 -3.273438 L 0.304688 -3.113281 C 0.324219 -2.859375 0.449219 -1.980469 1.027344 -1.167969 C 1.636719 -0.304688 2.519531 0.144531 3.582031 0.144531 Z M 3.582031 0.144531 "/></g></g></g><g fill="#1b1b1d" fill-opacity="1"><g transform="translate(254.991854, 319.590653)"><g/></g></g><g fill="#1b1b1d" fill-opacity="1"><g transform="translate(272.768922, 119.893133)"><g><path d="M 0 8.628906 C 3.78125 8.441406 16.125 8.378906 21.730469 8.628906 L 21.730469 12.789062 C 21.730469 14.171875 21.417969 15.621094 21.226562 16.378906 C 21.984375 16.378906 23.433594 16.378906 24.691406 16.378906 L 28.15625 16.378906 C 27.90625 15.621094 27.589844 14.171875 27.589844 12.789062 L 27.589844 8.628906 C 29.039062 8.628906 29.417969 8.503906 35.589844 8.503906 C 40 8.503906 43.277344 8.566406 44.535156 8.628906 L 44.535156 20.285156 C 44.535156 21.730469 44.222656 23.179688 43.96875 23.9375 C 44.726562 23.9375 46.171875 23.9375 47.433594 23.9375 L 50.898438 23.9375 C 50.707031 23.179688 50.394531 21.730469 50.394531 20.285156 L 50.394531 9.132812 C 50.394531 8.378906 50.394531 6.929688 50.394531 5.667969 L 50.394531 2.203125 C 49.699219 2.457031 48.253906 2.773438 46.804688 2.773438 C 46.613281 2.773438 41.511719 2.835938 28.410156 2.835938 C 10.140625 2.835938 4.03125 2.773438 3.527344 2.773438 C 2.269531 2.773438 0.691406 2.644531 0 2.394531 Z M 0 8.628906 "/></g></g></g><g fill="#1b1b1d" fill-opacity="1"><g transform="translate(272.768922, 149.939371)"><g><path d="M -0.253906 13.796875 C -0.253906 22.300781 6.363281 26.519531 25.195312 26.519531 C 44.03125 26.519531 50.644531 22.300781 50.644531 13.796875 C 50.644531 5.292969 44.03125 1.070312 25.195312 1.070312 C 6.363281 1.070312 -0.253906 5.292969 -0.253906 13.796875 Z M 4.914062 13.796875 C 4.914062 8.125 12.472656 6.234375 25.195312 6.234375 C 37.921875 6.234375 45.480469 8.125 45.480469 13.796875 C 45.480469 19.464844 37.921875 21.355469 25.195312 21.355469 C 12.472656 21.355469 4.914062 19.464844 4.914062 13.796875 Z M 4.914062 13.796875 "/></g></g></g><g fill="#1b1b1d" fill-opacity="1"><g transform="translate(272.768922, 182.568128)"><g><path d="M 12.09375 17.890625 C 7.621094 17.132812 5.164062 15.621094 5.164062 12.410156 C 5.164062 6.738281 12.722656 6.234375 25.449219 6.234375 C 38.171875 6.234375 45.230469 6.738281 45.230469 12.410156 C 45.230469 15.683594 42.835938 17.195312 38.300781 17.890625 L 38.300781 22.992188 C 47.179688 21.667969 50.394531 18.519531 50.394531 12.410156 C 50.394531 3.90625 44.285156 1.070312 25.449219 1.070312 C 6.550781 1.070312 0 3.90625 0 12.410156 C 0 18.457031 3.339844 21.605469 12.09375 22.929688 Z M 12.09375 17.890625 "/></g></g></g><g fill="#1b1b1d" fill-opacity="1"><g transform="translate(272.768922, 211.669542)"><g><path d="M 46.804688 24.316406 C 48.1875 24.316406 49.636719 24.691406 50.394531 25.007812 C 50.394531 24.253906 50.394531 22.804688 50.394531 21.542969 L 50.394531 17.953125 C 49.699219 18.203125 48.253906 18.582031 46.804688 18.582031 C 31.496094 18.707031 10.898438 18.835938 10.203125 18.835938 C 8.757812 18.835938 5.101562 17.828125 4.914062 13.039062 C 5.101562 8.1875 8.757812 7.242188 10.203125 7.242188 C 10.898438 7.242188 31.496094 7.371094 46.804688 7.496094 C 48.1875 7.496094 49.636719 7.8125 50.394531 8.0625 C 50.394531 7.308594 50.394531 5.796875 50.394531 4.535156 L 50.394531 1.070312 C 49.699219 1.324219 48.253906 1.699219 46.804688 1.699219 L 10.203125 1.699219 C 7.308594 1.699219 2.015625 2.773438 0.1875 8.566406 C 0.125 8.691406 0.0625 8.882812 0.0625 9.007812 C 0.0625 9.070312 0 9.070312 0 9.132812 C -0.316406 10.203125 -0.441406 11.464844 -0.441406 12.914062 L -0.441406 13.101562 C -0.441406 14.550781 -0.316406 15.8125 0 16.945312 C 0 16.945312 0.0625 17.007812 0.0625 17.070312 C 0.0625 17.195312 0.125 17.324219 0.1875 17.511719 C 2.015625 23.246094 7.308594 24.378906 10.203125 24.378906 Z M 46.804688 24.316406 "/></g></g></g><g fill="#1b1b1d" fill-opacity="1"><g transform="translate(272.768922, 242.786581)"><g><path d="M -0.503906 12.535156 C -0.503906 20.535156 4.976562 25.261719 14.234375 25.261719 C 23.621094 25.261719 28.976562 16.691406 32.503906 10.960938 C 34.644531 7.496094 36.976562 6.804688 39.8125 6.804688 C 43.148438 6.804688 45.417969 9.195312 45.417969 12.789062 C 45.417969 16.945312 43.84375 18.773438 39.9375 19.023438 L 40.316406 24.503906 C 47.117188 24.0625 50.898438 19.90625 50.898438 12.789062 C 50.898438 6.171875 46.238281 1.324219 39.8125 1.324219 C 34.519531 1.324219 30.742188 3.464844 27.84375 8.0625 C 24 14.234375 20.09375 19.84375 14.234375 19.84375 C 4.976562 19.84375 4.976562 14.300781 4.976562 12.535156 C 4.976562 7.242188 11.210938 6.550781 11.464844 6.488281 L 10.898438 1.070312 C 10.015625 1.132812 6.929688 1.574219 4.09375 3.589844 C 1.070312 5.730469 -0.503906 8.820312 -0.503906 12.535156 Z M -0.503906 12.535156 "/></g></g></g><g fill="#1b1b1d" fill-opacity="1"><g transform="translate(272.768922, 274.155567)"><g><path d="M 5.921875 18.394531 L 5.921875 8.628906 C 9.636719 8.441406 16.503906 8.378906 22.109375 8.628906 L 22.109375 12.789062 C 22.109375 14.171875 21.796875 15.621094 21.605469 16.378906 C 22.363281 16.378906 23.8125 16.378906 25.070312 16.378906 L 28.535156 16.378906 C 28.285156 15.621094 27.96875 14.171875 27.96875 12.789062 L 27.96875 8.628906 C 29.417969 8.628906 29.480469 8.503906 35.652344 8.503906 C 40 8.503906 43.277344 8.566406 44.535156 8.628906 L 44.535156 18.332031 C 44.535156 19.78125 44.222656 21.226562 43.96875 21.921875 C 44.726562 21.921875 46.171875 21.921875 47.433594 21.921875 L 50.898438 21.921875 C 50.707031 21.226562 50.394531 19.78125 50.394531 18.332031 L 50.394531 9.132812 C 50.394531 8.378906 50.394531 6.929688 50.394531 5.667969 L 50.394531 2.203125 C 49.699219 2.457031 48.253906 2.773438 46.804688 2.773438 C 44.660156 2.773438 38.363281 2.835938 28.789062 2.835938 C 10.519531 2.835938 4.09375 2.773438 3.527344 2.773438 C 2.332031 2.773438 0.691406 2.644531 0 2.394531 L 0 2.582031 C 0 2.773438 0 3.085938 0 3.527344 L 0 18.394531 C 0 19.84375 -0.316406 21.292969 -0.503906 22.046875 C 0.253906 22.046875 1.699219 22.046875 2.960938 22.046875 L 6.425781 22.046875 C 6.234375 21.292969 5.921875 19.84375 5.921875 18.394531 Z M 5.921875 18.394531 "/></g></g></g><g fill="#1b1b1d" fill-opacity="1"><g transform="translate(272.768922, 302.31215)"><g><path d="M 50.394531 14.171875 L 50.394531 7.683594 C 50.394531 7.308594 50.394531 6.550781 50.394531 5.480469 L 50.394531 2.203125 C 50.078125 2.332031 49.449219 2.519531 48.882812 2.519531 C 46.425781 2.644531 38.550781 2.835938 26.078125 2.835938 C 6.804688 2.835938 4.03125 2.519531 3.527344 2.519531 C 2.269531 2.519531 0.691406 2.457031 0 2.203125 L 0 5.480469 C 0 6.300781 0 7.054688 0 7.683594 L 0 14.171875 C 0 22.675781 6.613281 25.511719 25.449219 25.511719 C 44.285156 25.511719 50.394531 22.675781 50.394531 14.171875 Z M 5.226562 14.171875 L 5.226562 8.378906 C 10.582031 8.441406 19.023438 8.628906 26.078125 8.628906 C 34.898438 8.628906 41.261719 8.441406 45.230469 8.253906 L 45.230469 14.171875 C 45.230469 19.84375 38.109375 20.285156 25.449219 20.285156 C 12.722656 20.285156 5.226562 19.84375 5.226562 14.171875 Z M 5.226562 14.171875 "/></g></g></g></svg>